<svg width="25" height="25" viewBox="0 0 25 25" fill="none" xmlns="http://www.w3.org/2000/svg">
<path d="M7.29169 11.4583H9.37502V13.5416H7.29169V11.4583ZM7.29169 15.625H9.37502V17.7083H7.29169V15.625ZM11.4584 11.4583H13.5417V13.5416H11.4584V11.4583ZM11.4584 15.625H13.5417V17.7083H11.4584V15.625ZM15.625 11.4583H17.7084V13.5416H15.625V11.4583ZM15.625 15.625H17.7084V17.7083H15.625V15.625Z" fill="#fff" fill-opacity="0.85"/>
<path d="M5.20833 22.9166H19.7917C20.9406 22.9166 21.875 21.9823 21.875 20.8333V6.24998C21.875 5.10102 20.9406 4.16665 19.7917 4.16665H17.7083V2.08331H15.625V4.16665H9.375V2.08331H7.29167V4.16665H5.20833C4.05937 4.16665 3.125 5.10102 3.125 6.24998V20.8333C3.125 21.9823 4.05937 22.9166 5.20833 22.9166ZM19.7917 8.33331L19.7927 20.8333H5.20833V8.33331H19.7917Z" fill="#fff" fill-opacity="0.85"/>
</svg>
