<svg width="18" height="18" viewBox="0 0 25 25" fill="none" xmlns="http://www.w3.org/2000/svg">
<path d="M3.125 1.63475C2.7106 1.63475 2.31317 1.80698 2.02015 2.11355C1.72712 2.42013 1.5625 2.83593 1.5625 3.26949V16.3475C1.5625 16.781 1.72712 17.1968 2.02015 17.5034C2.31317 17.81 2.7106 17.9822 3.125 17.9822H18.1031C18.9319 17.9824 19.7266 18.327 20.3125 18.9402L23.4375 22.2097V3.26949C23.4375 2.83593 23.2729 2.42013 22.9799 2.11355C22.6868 1.80698 22.2894 1.63475 21.875 1.63475H3.125ZM21.875 0C22.7038 0 23.4987 0.344463 24.0847 0.957612C24.6708 1.57076 25 2.40237 25 3.26949V24.1828C25 24.3445 24.9541 24.5026 24.8681 24.6371C24.7822 24.7715 24.6601 24.8762 24.5172 24.938C24.3743 24.9998 24.2172 25.0158 24.0656 24.9841C23.914 24.9524 23.7748 24.8744 23.6656 24.7599L19.2078 20.0959C18.9149 19.7893 18.5175 19.617 18.1031 19.617H3.125C2.2962 19.617 1.50134 19.2725 0.915291 18.6593C0.32924 18.0462 0 17.2146 0 16.3475V3.26949C0 2.40237 0.32924 1.57076 0.915291 0.957612C1.50134 0.344463 2.2962 0 3.125 0L21.875 0Z" fill="white"/>
<path d="M4.6875 5.72161C4.6875 5.50483 4.76981 5.29693 4.91632 5.14364C5.06284 4.99035 5.26155 4.90424 5.46875 4.90424H19.5312C19.7385 4.90424 19.9372 4.99035 20.0837 5.14364C20.2302 5.29693 20.3125 5.50483 20.3125 5.72161C20.3125 5.93839 20.2302 6.14629 20.0837 6.29958C19.9372 6.45287 19.7385 6.53898 19.5312 6.53898H5.46875C5.26155 6.53898 5.06284 6.45287 4.91632 6.29958C4.76981 6.14629 4.6875 5.93839 4.6875 5.72161ZM4.6875 9.80847C4.6875 9.59169 4.76981 9.38379 4.91632 9.2305C5.06284 9.07722 5.26155 8.9911 5.46875 8.9911H19.5312C19.7385 8.9911 19.9372 9.07722 20.0837 9.2305C20.2302 9.38379 20.3125 9.59169 20.3125 9.80847C20.3125 10.0253 20.2302 10.2332 20.0837 10.3864C19.9372 10.5397 19.7385 10.6258 19.5312 10.6258H5.46875C5.26155 10.6258 5.06284 10.5397 4.91632 10.3864C4.76981 10.2332 4.6875 10.0253 4.6875 9.80847ZM4.6875 13.8953C4.6875 13.6786 4.76981 13.4707 4.91632 13.3174C5.06284 13.1641 5.26155 13.078 5.46875 13.078H13.2812C13.4885 13.078 13.6872 13.1641 13.8337 13.3174C13.9802 13.4707 14.0625 13.6786 14.0625 13.8953C14.0625 14.1121 13.9802 14.32 13.8337 14.4733C13.6872 14.6266 13.4885 14.7127 13.2812 14.7127H5.46875C5.26155 14.7127 5.06284 14.6266 4.91632 14.4733C4.76981 14.32 4.6875 14.1121 4.6875 13.8953Z" fill="white"/>
</svg>
