<svg width="18" height="18" viewBox="0 0 25 25" fill="none" xmlns="http://www.w3.org/2000/svg">
<path d="M18.125 11.25C19.9484 11.25 21.697 11.9743 22.9864 13.2636C24.2757 14.553 25 16.3016 25 18.125C25 19.9484 24.2757 21.697 22.9864 22.9864C21.697 24.2757 19.9484 25 18.125 25C16.3016 25 14.553 24.2757 13.2636 22.9864C11.9743 21.697 11.25 19.9484 11.25 18.125C11.25 16.3016 11.9743 14.553 13.2636 13.2636C14.553 11.9743 16.3016 11.25 18.125 11.25ZM15.03 15.03C14.9128 15.1472 14.847 15.3061 14.847 15.4719C14.847 15.6376 14.9128 15.7965 15.03 15.9137L17.2412 18.1262L15.0325 20.3337C14.9744 20.3918 14.9283 20.4607 14.8968 20.5365C14.8653 20.6124 14.8491 20.6937 14.849 20.7758C14.849 20.8579 14.8651 20.9393 14.8965 21.0152C14.9278 21.091 14.9738 21.16 15.0319 21.2181C15.0899 21.2762 15.1588 21.3223 15.2347 21.3538C15.3105 21.3853 15.3918 21.4015 15.4739 21.4016C15.5561 21.4017 15.6374 21.3855 15.7133 21.3542C15.7892 21.3228 15.8581 21.2768 15.9163 21.2188L18.125 19.01L20.3375 21.2212C20.3952 21.2809 20.4641 21.3286 20.5404 21.3613C20.6166 21.3941 20.6986 21.4113 20.7816 21.412C20.8646 21.4128 20.9469 21.3969 21.0237 21.3655C21.1005 21.3341 21.1703 21.2877 21.229 21.229C21.2877 21.1703 21.3341 21.1005 21.3655 21.0237C21.3969 20.9469 21.4128 20.8646 21.412 20.7816C21.4113 20.6986 21.3941 20.6166 21.3613 20.5404C21.3286 20.4641 21.2809 20.3952 21.2212 20.3375L19.01 18.125L21.2238 15.9125C21.3376 15.7946 21.4006 15.6367 21.3992 15.4729C21.3977 15.309 21.332 15.1522 21.2161 15.0364C21.1003 14.9205 20.9435 14.8548 20.7796 14.8533C20.6158 14.8519 20.4579 14.9149 20.34 15.0287L18.1262 17.2412L15.9137 15.0287C15.7965 14.9116 15.6376 14.8458 15.4719 14.8458C15.3061 14.8458 15.1472 14.9116 15.03 15.0287V15.03ZM18.4375 0C19.5149 0 20.5483 0.428012 21.3101 1.18988C22.072 1.95175 22.5 2.98506 22.5 4.0625L22.5012 11.2787C21.9169 10.9036 21.2868 10.6054 20.6262 10.3912L20.625 6.875H1.875V18.4375C1.875 19.645 2.855 20.625 4.0625 20.625H10.3925C10.6075 21.2925 10.9075 21.9225 11.2787 22.5012L4.0625 22.5C2.98506 22.5 1.95175 22.072 1.18988 21.3101C0.428012 20.5483 0 19.5149 0 18.4375V4.0625C0 2.98506 0.428012 1.95175 1.18988 1.18988C1.95175 0.428012 2.98506 0 4.0625 0H18.4375ZM18.4375 1.875H4.0625C3.48234 1.875 2.92594 2.10547 2.5157 2.5157C2.10547 2.92594 1.875 3.48234 1.875 4.0625V5H20.625V4.0625C20.625 3.48234 20.3945 2.92594 19.9843 2.5157C19.5741 2.10547 19.0177 1.875 18.4375 1.875Z" fill="white"/>
</svg>
