<svg width="15" height="15" viewBox="0 0 22 22" fill="none" xmlns="http://www.w3.org/2000/svg">
<path d="M18.9999 8H9.99998C8.89542 8 8 8.89543 8 10V19C8 20.1046 8.89542 21 9.99998 21H18.9999C20.1045 21 20.9999 20.1046 20.9999 19V10C20.9999 8.89543 20.1045 8 18.9999 8Z" stroke="white" stroke-width="2" stroke-linecap="round" stroke-linejoin="round"/>
<path d="M3.99997 14H2.99998C2.46955 14 1.96085 13.7893 1.58578 13.4142C1.21071 13.0391 1 12.5304 1 12V3C1 2.46957 1.21071 1.96086 1.58578 1.58579C1.96085 1.21071 2.46955 1 2.99998 1H11.9999C12.5303 1 13.039 1.21071 13.4141 1.58579C13.7892 1.96086 13.9999 2.46957 13.9999 3V4" stroke="white" stroke-width="2" stroke-linecap="round" stroke-linejoin="round"/>
</svg>
