<svg width="15" height="15" viewBox="0 0 15 15" fill="none" xmlns="http://www.w3.org/2000/svg">
<path d="M7.5 14.5312C11.3833 14.5312 14.5312 11.3833 14.5312 7.5C14.5312 3.61675 11.3833 0.46875 7.5 0.46875C3.61675 0.46875 0.46875 3.61675 0.46875 7.5C0.46875 11.3833 3.61675 14.5312 7.5 14.5312Z" fill="#4FD1D9"/>
<path d="M5.46113 4.78125C6.0002 4.21875 6.70332 3.9375 7.54707 3.9375C8.67207 3.9375 9.51582 4.3125 10.0314 5.0625C10.3127 5.48438 10.4768 5.90625 10.5002 6.32813H9.07051C8.97676 6 8.85957 5.76563 8.71895 5.60156C8.46114 5.29688 8.08614 5.15625 7.59395 5.15625C7.07832 5.15625 6.67989 5.36719 6.39864 5.78906C6.11739 6.21094 5.95332 6.79688 5.95332 7.54688C5.95332 8.32031 6.11739 8.88281 6.42207 9.25781C6.72676 9.63281 7.1252 9.82031 7.59395 9.82031C8.08614 9.82031 8.46114 9.65625 8.71895 9.32812C8.85957 9.16406 8.97676 8.88281 9.07051 8.53125H10.4768C10.3596 9.28125 10.0549 9.86719 9.53926 10.3359C9.04707 10.8047 8.39082 11.0391 7.61739 11.0391C6.65645 11.0391 5.88301 10.7344 5.34395 10.1016C4.78145 9.46875 4.52363 8.60156 4.52363 7.5C4.5002 6.32813 4.82832 5.41406 5.46113 4.78125Z" fill="white"/>
</svg>
