<svg width="35" height="21" viewBox="0 0 40 26" fill="none" xmlns="http://www.w3.org/2000/svg">
<path d="M4.00001 8.66095C4.00001 12.1065 5.26429 15.4109 7.51473 17.8473C9.76516 20.2836 12.8174 21.6524 16 21.6524C19.1826 21.6524 22.2348 20.2836 24.4853 17.8473C26.7357 15.4109 28 12.1065 28 8.66095V4.33047H4.00001V8.66095ZM32 0H34C35.5913 0 37.1174 0.684368 38.2426 1.90255C39.3679 3.12073 40 4.77294 40 6.49571C40 8.21848 39.3679 9.87069 38.2426 11.0889C37.1174 12.3071 35.5913 12.9914 34 12.9914H31.496C30.5256 17.0776 28.211 20.6398 24.9868 23.0095C21.7625 25.3792 17.8502 26.3935 13.9842 25.8619C10.1182 25.3304 6.56427 23.2896 3.9895 20.1225C1.41474 16.9555 -0.00384382 12.88 7.82271e-06 8.66095V0H32ZM32 8.66095H34C34.5304 8.66095 35.0391 8.43282 35.4142 8.02676C35.7893 7.6207 36 7.06997 36 6.49571C36 5.92145 35.7893 5.37072 35.4142 4.96466C35.0391 4.5586 34.5304 4.33047 34 4.33047H32V8.66095Z" fill="#FF9430"/>
</svg>
