<svg width="158" height="158" viewBox="0 0 158 158" fill="none" xmlns="http://www.w3.org/2000/svg">
<g filter="url(#filter0_d_70_3466)">
<circle cx="79" cy="79" r="75" fill="#A9CAF8" fill-opacity="0.64" shape-rendering="crispEdges"/>
</g>
<path d="M62.7415 50.7682C66.5235 49.5402 77.2495 53.8932 78.6235 55.4592C79.9885 57.0172 71.0775 57.6612 66.2395 58.3782C61.2475 59.1292 56.2685 60.0262 54.9075 58.4552C53.5475 56.9062 58.9645 52.0042 62.7415 50.7682Z" fill="#FF9430"/>
<path d="M88.7718 48.0384C93.0938 46.7764 104.684 51.9664 106.084 53.7344C107.47 55.5244 97.5038 55.9704 92.0638 56.6274C86.4328 57.3014 80.7928 58.1474 79.4058 56.3654C78.0098 54.5974 84.4648 49.2874 88.7748 48.0384" fill="#FF9430"/>
<path d="M63.4035 55.2071C66.0005 53.4991 77.1775 55.2461 79.0615 56.3191C80.9635 57.3831 73.7565 59.5381 70.0115 61.0101C66.1605 62.5331 62.3875 64.2031 60.4905 63.1131C58.5815 62.0531 60.8175 56.9321 63.4055 55.2071" fill="#FF9430"/>
<path d="M73.8817 47.0902C77.6627 47.4292 81.6417 54.0432 81.2727 55.6102C80.9167 57.1682 73.9247 54.7602 69.8077 53.7092C65.5677 52.6312 61.1937 51.6782 61.5717 50.1202C61.9367 48.5452 70.0917 46.7552 73.8817 47.0902Z" fill="#FF9430"/>
<path d="M86.8319 54.4853C90.6269 54.8113 94.6019 61.4303 94.2319 62.9923C93.8629 64.5593 86.8749 62.1463 82.7579 61.0993C78.5299 60.0263 74.1429 59.0603 74.5209 57.4983C74.8789 55.9363 83.0509 54.1553 86.8319 54.4883" fill="#FF9430"/>
<path d="M51.7119 98.636C51.7119 108.067 65.1899 110.814 79.6079 110.814C94.0249 110.814 107.508 108.067 107.508 98.636C107.508 89.223 94.0259 61.104 79.6079 61.104C65.1899 61.104 51.7119 89.224 51.7119 98.636Z" fill="#FF9430"/>
<path d="M88.2611 62.2629C88.2614 62.7319 88.1692 63.1964 87.9898 63.6298C87.8104 64.0631 87.5474 64.4569 87.2158 64.7886C86.8841 65.1202 86.4903 65.3832 86.057 65.5626C85.6236 65.742 85.1591 65.8342 84.6901 65.8339H74.5251C73.578 65.8339 72.6697 65.4577 72 64.788C71.3303 64.1183 70.9541 63.21 70.9541 62.2629C70.9541 61.3158 71.3303 60.4075 72 59.7378C72.6697 59.0681 73.578 58.6919 74.5251 58.6919H84.6891C85.1581 58.6918 85.6226 58.784 86.056 58.9634C86.4893 59.1428 86.8831 59.4059 87.2148 59.7375C87.5465 60.0691 87.8097 60.4628 87.9892 60.8961C88.1687 61.3294 88.2611 61.7939 88.2611 62.2629Z" fill="#845939"/>
<path d="M86.1884 87.9659C85.0814 86.7849 83.5534 85.9949 82.1024 85.3389C80.5914 84.6509 78.4024 84.0899 77.4404 82.6089C76.6334 81.3689 77.7454 80.0679 78.8784 79.6899C80.7024 79.0769 82.9524 79.8149 84.5534 80.7159C85.3514 81.1619 86.1934 80.7249 86.4974 79.9259C86.8324 79.0419 87.1674 78.1569 87.4974 77.2739C87.6994 76.7369 87.3734 76.0499 86.8934 75.7799C85.4384 74.9729 83.9224 74.5309 82.3214 74.3209V71.6169C82.3214 70.8959 81.7204 70.2949 80.9994 70.2949H78.5054C77.7884 70.2949 77.1834 70.8959 77.1834 71.6169V74.6369C74.7154 75.3489 72.4664 76.9379 71.5904 79.4619C70.6164 82.2559 71.2084 85.1489 73.2814 87.2649C74.3934 88.4029 75.8954 89.1499 77.3214 89.7969C78.9304 90.5229 80.9095 91.0459 81.9485 92.5959C83.0604 94.2529 81.6224 95.8879 80.0684 96.3569C77.9824 96.9829 75.4544 96.0439 73.7024 94.9529C72.9344 94.4729 72.0414 94.9659 71.7624 95.7429L70.7964 98.4339C70.5904 99.0089 70.9334 99.6189 71.4054 99.9269C73.0584 101.009 74.9554 101.545 76.8994 101.769V104.615C76.8994 105.002 77.0414 105.298 77.2514 105.508C77.2644 105.522 77.2774 105.534 77.2854 105.547C77.2974 105.559 77.3105 105.571 77.3244 105.581C77.5344 105.796 77.8304 105.937 78.2174 105.937H80.7544C81.1037 105.934 81.4377 105.793 81.6843 105.546C81.931 105.299 82.0704 104.964 82.0724 104.615V101.473C84.8154 100.683 86.9354 98.9109 88.0044 96.1589C89.1005 93.3519 88.1684 90.0849 86.1814 87.9649" fill="#25333A"/>
<path d="M86.1884 86.1401C85.0814 84.9641 83.5534 84.1741 82.1024 83.5181C80.5914 82.8301 78.4024 82.2691 77.4404 80.7841C76.6334 79.5521 77.7454 78.2471 78.8784 77.8651C80.7024 77.2561 82.9524 77.9901 84.5534 78.8911C85.3514 79.3421 86.1934 78.8991 86.4974 78.1011C86.8324 77.2171 87.1674 76.3371 87.4974 75.4531C87.6994 74.9121 87.3734 74.2251 86.8934 73.9591C85.4384 73.1481 83.9224 72.7101 82.3214 72.4961V69.7921C82.3214 69.0751 81.7204 68.4741 80.9994 68.4741H78.5054C77.7884 68.4741 77.1834 69.0751 77.1834 69.7921V72.8121C74.7154 73.5251 72.4664 75.1171 71.5904 77.6411C70.6164 80.4351 71.2084 83.3281 73.2814 85.4401C74.3934 86.5781 75.8954 87.3291 77.3214 87.9721C78.9304 88.6981 80.9095 89.2211 81.9485 90.7711C83.0604 92.4271 81.6224 94.0631 80.0684 94.5351C77.9824 95.1621 75.4544 94.2231 73.7024 93.1281C72.9344 92.6511 72.0414 93.1451 71.7624 93.9181L70.7964 96.6131C70.5904 97.1831 70.9334 97.7981 71.4054 98.1061C73.0584 99.1841 74.9554 99.7241 76.8994 99.9481V102.794C76.8994 103.176 77.0414 103.473 77.2514 103.687C77.2644 103.701 77.2774 103.713 77.2854 103.726C77.2994 103.736 77.3125 103.748 77.3244 103.76C77.5344 103.97 77.8304 104.112 78.2174 104.112H80.7544C81.1029 104.109 81.4361 103.969 81.6826 103.723C81.9291 103.477 82.0691 103.144 82.0724 102.795V99.6491C84.8154 98.8601 86.9354 97.0911 88.0044 94.3361C89.1005 91.5301 88.1684 88.2591 86.1814 86.1391" fill="#25333A"/>
<defs>
<filter id="filter0_d_70_3466" x="0" y="0" width="158" height="158" filterUnits="userSpaceOnUse" color-interpolation-filters="sRGB">
<feFlood flood-opacity="0" result="BackgroundImageFix"/>
<feColorMatrix in="SourceAlpha" type="matrix" values="0 0 0 0 0 0 0 0 0 0 0 0 0 0 0 0 0 0 127 0" result="hardAlpha"/>
<feMorphology radius="4" operator="dilate" in="SourceAlpha" result="effect1_dropShadow_70_3466"/>
<feOffset/>
<feComposite in2="hardAlpha" operator="out"/>
<feColorMatrix type="matrix" values="0 0 0 0 0.0823529 0 0 0 0 0.396079 0 0 0 0 0.752941 0 0 0 0.37 0"/>
<feBlend mode="normal" in2="BackgroundImageFix" result="effect1_dropShadow_70_3466"/>
<feBlend mode="normal" in="SourceGraphic" in2="effect1_dropShadow_70_3466" result="shape"/>
</filter>
</defs>
</svg>
