<svg width="20" height="15" viewBox="0 0 22 17" fill="none" xmlns="http://www.w3.org/2000/svg">
<path d="M21.272 8.57827C20.4364 6.3239 18.9856 4.37432 17.0991 2.97048C15.2126 1.56664 12.973 0.770086 10.6572 0.67926C8.34133 0.770086 6.10174 1.56664 4.21523 2.97048C2.32873 4.37432 0.877989 6.3239 0.0423277 8.57827C-0.0141092 8.74107 -0.0141092 8.91934 0.0423277 9.08214C0.877989 11.3365 2.32873 13.2861 4.21523 14.6899C6.10174 16.0938 8.34133 16.8903 10.6572 16.9811C12.973 16.8903 15.2126 16.0938 17.0991 14.6899C18.9856 13.2861 20.4364 11.3365 21.272 9.08214C21.3285 8.91934 21.3285 8.74107 21.272 8.57827V8.57827ZM10.6572 15.4992C6.89154 15.4992 2.91274 12.587 1.47043 8.8302C2.91274 5.07336 6.89154 2.16125 10.6572 2.16125C14.4228 2.16125 18.4016 5.07336 19.8439 8.8302C18.4016 12.587 14.4228 15.4992 10.6572 15.4992Z" fill="white"/>
<path d="M10.657 4.38422C9.8139 4.38422 8.98969 4.64497 8.28865 5.1335C7.5876 5.62203 7.0412 6.31639 6.71855 7.12879C6.39589 7.94118 6.31147 8.83512 6.47596 9.69755C6.64045 10.56 7.04646 11.3522 7.64265 11.974C8.23884 12.5957 8.99843 13.0192 9.82537 13.1907C10.6523 13.3623 11.5095 13.2742 12.2884 12.9377C13.0674 12.6012 13.7332 12.0314 14.2016 11.3002C14.67 10.5691 14.92 9.70952 14.92 8.83019C14.92 7.65104 14.4709 6.52019 13.6714 5.68641C12.872 4.85263 11.7877 4.38422 10.657 4.38422ZM10.657 11.7942C10.0949 11.7942 9.54548 11.6203 9.07811 11.2946C8.61075 10.969 8.24648 10.506 8.03138 9.96445C7.81627 9.42285 7.75999 8.8269 7.86965 8.25194C7.97931 7.67699 8.24998 7.14886 8.64744 6.73434C9.04491 6.31982 9.5513 6.03752 10.1026 5.92316C10.6539 5.80879 11.2253 5.86749 11.7446 6.09183C12.2639 6.31616 12.7078 6.69606 13.0201 7.18349C13.3324 7.67091 13.499 8.24397 13.499 8.83019C13.499 9.61628 13.1996 10.3702 12.6666 10.926C12.1337 11.4819 11.4108 11.7942 10.657 11.7942Z" fill="white"/>
</svg>
