<?xml version="1.0" encoding="utf-8"?>
<svg viewBox="0 0 40 40" fill="none" xmlns="http://www.w3.org/2000/svg">
  <circle cx="20" cy="20" r="19" stroke="#C4C4C4" stroke-opacity="0.18" stroke-width="2"/>
  <path d="M 25.5 11.503 C 25.5 11.37 25.447 11.243 25.354 11.149 C 25.26 11.055 25.133 11.003 25 11.003 L 22.5 11.003 C 21.241 10.94 20.009 11.378 19.072 12.221 C 18.135 13.064 17.57 14.244 17.5 15.503 L 17.5 18.203 L 15 18.203 C 14.867 18.203 14.74 18.255 14.646 18.349 C 14.553 18.443 14.5 18.57 14.5 18.703 L 14.5 21.303 C 14.5 21.435 14.553 21.562 14.646 21.656 C 14.74 21.75 14.867 21.803 15 21.803 L 17.5 21.803 L 17.5 28.503 C 17.5 28.635 17.553 28.762 17.646 28.856 C 17.74 28.95 17.867 29.003 18 29.003 L 21 29.003 C 21.133 29.003 21.26 28.95 21.354 28.856 C 21.447 28.762 21.5 28.635 21.5 28.503 L 21.5 21.803 L 24.12 21.803 C 24.231 21.804 24.34 21.769 24.428 21.702 C 24.517 21.635 24.581 21.54 24.61 21.433 L 25.33 18.833 C 25.35 18.759 25.353 18.681 25.338 18.606 C 25.323 18.531 25.291 18.46 25.245 18.4 C 25.198 18.339 25.139 18.289 25.07 18.255 C 25.002 18.221 24.926 18.203 24.85 18.203 L 21.5 18.203 L 21.5 15.503 C 21.525 15.255 21.641 15.026 21.826 14.859 C 22.011 14.693 22.251 14.601 22.5 14.603 L 25 14.603 C 25.133 14.603 25.26 14.55 25.354 14.456 C 25.447 14.362 25.5 14.235 25.5 14.103 L 25.5 11.503 Z" fill="white" fill-opacity="0.95"/>
</svg>