<svg width="23" height="26" viewBox="0 0 33 36" fill="none" xmlns="http://www.w3.org/2000/svg">
<path d="M16.4084 17.3C18.8834 17.3 20.8084 15.1 20.8084 12.4C20.8084 9.69998 18.7917 7.59998 16.3167 7.59998C13.8417 7.59998 11.9167 9.79998 11.9167 12.4C11.9167 15.1 13.9334 17.3 16.4084 17.3ZM16.3167 9.59998C16.4084 9.59998 16.4084 9.59998 16.3167 9.59998C17.7834 9.59998 18.9751 10.9 18.9751 12.5C18.9751 14.1 17.7834 15.3 16.3167 15.3C14.8501 15.3 13.7501 14 13.7501 12.5C13.7501 10.9 14.9417 9.59998 16.3167 9.59998Z" fill="white"/>
<path d="M29.975 16.7C28.2333 15 25.9417 14.1 23.5583 14.2H22.825C22.6417 15 22.3667 15.7 22 16.3C22.55 16.2 23.0083 16.2 23.5583 16.2C25.3 16.1 27.0417 16.7 28.4167 17.8V25H30.25V17L29.975 16.7Z" fill="white"/>
<path d="M21.4501 7.79999C21.9084 6.59999 23.1917 5.99999 24.3834 6.49999C25.4834 6.99999 26.0334 8.39999 25.5751 9.69999C25.2084 10.6 24.3834 11.2 23.5584 11.2C23.3751 11.2 23.1001 11.2 22.9167 11.1C23.0084 11.6 23.0084 12.1 23.0084 12.5V13.1C23.1917 13.1 23.3751 13.2 23.5584 13.2C25.8501 13.2 27.6834 11.2 27.6834 8.79999C27.6834 6.29999 25.8501 4.29999 23.6501 4.29999C22.1834 4.29999 20.9001 5.09999 20.1667 6.49999C20.6251 6.79999 21.0834 7.19999 21.4501 7.79999Z" fill="white"/>
<path d="M11 16.4C10.6333 15.8 10.3583 15.1 10.175 14.3H9.44167C7.05833 14.2 4.76667 15.1 3.025 16.7L2.75 17V25H4.58333V17.8C6.05 16.7 7.7 16.1 9.44167 16.2C9.99167 16.2 10.5417 16.3 11 16.4Z" fill="white"/>
<path d="M9.44162 13.1C9.62495 13.1 9.80828 13.1 9.99162 13V12.4C9.99162 11.9 9.99162 11.4 10.0833 11C9.89995 11.1 9.62495 11.1 9.44162 11.1C8.24995 11.1 7.24162 9.99998 7.24162 8.69998C7.24162 7.39998 8.24995 6.29998 9.44162 6.29998C10.3583 6.29998 11.1833 6.89998 11.55 7.79998C11.9166 7.29998 12.4666 6.79998 12.925 6.39998C11.7333 4.29998 9.25828 3.59998 7.33328 4.89998C5.40828 6.19998 4.76662 8.89998 5.95828 11C6.69162 12.3 7.97495 13.1 9.44162 13.1Z" fill="white"/>
<path d="M23.9251 22.7L23.7417 22.4C21.9084 20.2 19.3417 18.9 16.5917 19C13.8417 18.9 11.1834 20.2 9.35008 22.4L9.16675 22.7V30.3C9.16675 31.2 9.80841 32 10.7251 32H22.4584C23.2834 32 24.0167 31.2 24.0167 30.3V22.7H23.9251ZM22.0917 30H11.0001V23.4C12.4667 21.8 14.4834 21 16.5917 21C18.6084 20.9 20.6251 21.8 22.0917 23.4V30Z" fill="white"/>
</svg>
