<svg width="15" height="12" viewBox="0 0 23 20" fill="none" xmlns="http://www.w3.org/2000/svg">
<path d="M8.9515 2.02159C8.99028 2.00214 9.03273 1.99411 9.07495 1.99823C9.11717 2.00236 9.1578 2.01851 9.19311 2.0452C9.22842 2.07189 9.25728 2.10826 9.27703 2.15098C9.29678 2.1937 9.30679 2.24139 9.30614 2.28967V4.59631C9.30614 4.8616 9.39863 5.11602 9.56325 5.30361C9.72788 5.4912 9.95116 5.59658 10.184 5.59658C11.355 5.59658 13.7181 5.60658 15.9777 7.24104C17.7052 8.48938 19.4714 10.762 20.5336 14.9952C18.7428 13.0286 16.6975 11.9623 14.9067 11.3962C13.806 11.0498 12.6748 10.8444 11.5341 10.784C11.0672 10.7606 10.5995 10.766 10.1331 10.8H10.1102L10.1015 10.802H10.0997L10.184 11.7983L10.0962 10.802C9.87951 10.8268 9.67866 10.9425 9.53266 11.1266C9.38665 11.3108 9.30592 11.5501 9.30614 11.7983V14.1049C9.30614 14.321 9.11302 14.457 8.9515 14.373L1.95694 8.50538C1.9332 8.48532 1.90859 8.46662 1.8832 8.44937C1.84503 8.42323 1.81344 8.38628 1.79151 8.3421C1.76958 8.29793 1.75805 8.24805 1.75805 8.1973C1.75805 8.14655 1.76958 8.09666 1.79151 8.05249C1.81344 8.00832 1.84503 7.97137 1.8832 7.94523C1.9086 7.92799 1.93321 7.90929 1.95694 7.88921L8.9515 2.02159ZM11.0618 12.7706C11.1812 12.7706 11.3129 12.7766 11.4533 12.7826C12.2153 12.8226 13.2687 12.9546 14.4379 13.3247C16.7659 14.0609 19.5223 15.7294 21.3553 19.4864C21.4544 19.6892 21.6123 19.8464 21.802 19.9311C21.9917 20.0158 22.2013 20.0226 22.3949 19.9505C22.5886 19.8784 22.7542 19.7317 22.8633 19.5357C22.9725 19.3398 23.0184 19.1066 22.9933 18.8762C22.1787 11.4542 19.6821 7.54912 16.9187 5.55257C14.7329 3.97213 12.4821 3.66805 11.0618 3.61003V2.28967C11.062 1.87769 10.9645 1.4733 10.7798 1.11917C10.595 0.765042 10.3298 0.474302 10.0122 0.277629C9.69446 0.080956 9.33608 -0.0143561 8.97481 0.00174997C8.61354 0.017856 8.26278 0.144783 7.95955 0.369137L0.947434 6.25076C0.65754 6.45696 0.418464 6.74383 0.252716 7.08436C0.0869677 7.4249 0 7.8079 0 8.1973C0 8.5867 0.0869677 8.9697 0.252716 9.31024C0.418464 9.65077 0.65754 9.93764 0.947434 10.1438L7.95955 16.0255C8.26278 16.2498 8.61354 16.3767 8.97481 16.3928C9.33608 16.409 9.69446 16.3136 10.0122 16.117C10.3298 15.9203 10.595 15.6296 10.7798 15.2754C10.9645 14.9213 11.062 14.5169 11.0618 14.1049V12.7706Z" fill="white"/>
</svg>
