<?xml version="1.0" encoding="utf-8"?>
<!-- Generator: Adobe Illustrator 25.0.0, SVG Export Plug-In . SVG Version: 6.00 Build 0)  -->
<svg width="120px" version="1.1" id="Layer_1" xmlns="http://www.w3.org/2000/svg" xmlns:xlink="http://www.w3.org/1999/xlink" x="0px" y="0px"
	 viewBox="0 0 612 213" style="enable-background:new 0 0 612 213;" xml:space="preserve">
<style type="text/css">
	.st0{fill:#FFFFFF;}
</style>
<g>
	<path class="st0" d="M153.38,115.72c0.09,22.09-14.05,48.39-42.86,57.4c-28.51,8.92-59.19-4.05-72.55-30.65
		c-8.1-16.12-8.96-32.82-2.49-49.64c6.48-16.85,18.54-28.38,35.26-35.19c-2.02-0.66-4.04-0.97-6.11-0.96
		c-2.01,0.01-3.9,0.56-5.78,1.16c-1.53,0.49-3.08,0.88-4.7,0.83c-3.55-0.12-6.59-1.49-9.26-3.74c-1.86-1.57-3.33-3.43-3.97-5.82
		c-0.26-0.97-0.36-1.99-0.43-3c-0.12-1.89-1.05-3.29-2.51-4.4c-1.52-1.16-3.29-1.73-5.13-2.06c-2.46-0.45-4.95-0.69-7.46-0.59
		c-1.03,0.04-2.05,0.15-3.08,0.23c-0.08,0.01-0.17,0.04-0.24,0.02c-0.21-0.04-0.43-0.1-0.64-0.15c0.09-0.2,0.14-0.45,0.29-0.58
		c0.51-0.45,1.03-0.91,1.61-1.28c3.72-2.4,7.8-3.92,12.13-4.8c4.15-0.84,8.34-0.94,12.53-0.39c5.34,0.7,10.25,2.46,14.4,5.98
		c4.22,3.58,6.8,8.15,7.94,13.52c0.39,1.84,0.48,3.75,0.71,5.63c0.01,0.09,0.02,0.19,0.04,0.33c0.51-0.18,0.98-0.34,1.45-0.5
		c4.5-1.54,9.11-2.53,13.84-3.01c5.5-0.55,10.95-0.22,16.4,0.67c8.22,1.34,15.77,4.32,22.72,8.88c6.03,3.96,11.23,8.81,15.67,14.48
		c0.17,0.22,0.27,0.4,0.13,0.7c-2.76,6.04-5.99,11.8-10.21,16.95c-5.11,6.25-11.76,9.94-19.63,11.49c-3.33,0.66-6.7,0.93-10.09,0.68
		c-3.47-0.26-6.76-1.22-9.95-2.59c-2.29-0.99-4.58-1.99-6.94-2.81c-1.29-0.45-2.71-0.56-4.07-0.79c-0.17-0.03-0.46,0.1-0.55,0.24
		c-1.71,2.5-3.03,5.2-3.53,8.21c-0.15,0.89-0.03,1.85,0.12,2.76c0.17,1.06,0.81,1.89,1.74,2.45c3.71,2.24,4.59,5.73,4.26,9.72
		c-0.2,2.42-1.28,4.42-3.08,6.05c-1.34,1.21-2.61,2.51-3.31,4.21c-0.43,1.05-0.73,2.16-1.09,3.24c-0.04,0.12-0.07,0.24-0.15,0.52
		c-1.25-0.94-2.49-1.76-3.61-2.72c-3.3-2.87-5.37-6.46-5.99-10.82c-0.44-3.11-0.04-6.16,0.99-9.12c2.13-6.12,5.85-11,11.33-14.51
		c0.07-0.04,0.14-0.09,0.2-0.14c0.02-0.02,0.03-0.06,0.1-0.2c-1.27,0.18-2.49,0.27-3.66,0.55c-8.63,2.04-15.25,6.79-19.49,14.66
		c-1.63,3.04-2.57,6.32-2.88,9.76c-1.18,13.29,3.03,24.52,13.1,33.38c4.97,4.37,10.86,6.93,17.38,8.06
		c6.91,1.19,13.76,0.85,20.46-1.19c7.49-2.29,13.6-6.72,18.53-12.77c3.96-4.85,6.84-10.29,8.69-16.28c0.07-0.21,0.11-0.43,0.19-0.7
		c-0.14,0.01-0.21,0.01-0.28,0.03c-4.5,1.49-9.13,2.08-13.86,1.82c-5.57-0.3-10.92-1.49-15.96-3.95c-0.77-0.38-1.47-0.9-2.18-1.4
		c-0.17-0.12-0.22-0.4-0.32-0.61c0.21-0.07,0.42-0.2,0.62-0.19c1.34,0.09,2.67,0.21,4,0.34c2.84,0.26,5.68,0.33,8.52,0.19
		c9.97-0.49,19.12-3.72,27.88-8.3c5.08-2.65,9.98-5.58,14.52-9.09C153.17,115.85,153.27,115.79,153.38,115.72z M115.19,74.55
		c-2.48,0-4.44,1.97-4.45,4.45c0,2.47,1.97,4.46,4.44,4.48c2.45,0.02,4.51-2.04,4.49-4.5C119.65,76.52,117.66,74.55,115.19,74.55z"
		/>
	<g>
		<path class="st0" d="M225.19,151.6c-2.8-0.52-5.68-0.77-8.38-1.61c-17.57-5.46-28.28-17.23-31.07-35.45
			c-3.43-22.41,13.06-44.15,35.44-47.5c16.12-2.41,28.77,3.37,38.54,16.1c0.19,0.24,0.33,0.52,0.57,0.92
			c-4.61,3.14-9.18,6.25-13.81,9.4c-0.75-0.93-1.4-1.8-2.11-2.61c-4.83-5.45-10.68-8.91-18.17-8.15c-9.94,1-16.96,6.45-21.08,15.42
			c-6.97,15.19,1.92,33.3,18.05,36.8c11.92,2.59,21.58-4,26.08-13.24c0.06-0.13,0.06-0.29,0.13-0.62c-7.09,0-14.11,0-21.24,0
			c0-5.03,0-9.89,0-14.84c13.7,0,27.39,0,41.44,0c-0.17,3.08-0.04,6.16-0.54,9.14c-2.72,16.33-11.64,27.82-27.2,33.78
			c-3.06,1.17-6.44,1.48-9.68,2.18c-0.45,0.1-0.9,0.2-1.36,0.3C228.94,151.6,227.06,151.6,225.19,151.6z"/>
		<path class="st0" d="M317.22,151.6c-1.42-0.26-2.85-0.48-4.25-0.8c-13.94-3.14-23.99-14.07-25.88-28.19
			c-0.2-1.49-0.18-3.01-0.18-4.52c-0.01-15.75-0.01-31.5-0.01-47.25c0-0.56,0-1.12,0-1.77c5.76,0,11.35,0,17.14,0
			c0,0.63,0,1.24,0,1.84c0,15.75,0.03,31.5-0.02,47.25c-0.01,4.01,1.17,7.56,3.48,10.77c6.44,8.97,18.04,9.1,24.68,0.26
			c2.53-3.36,3.61-7.15,3.6-11.36c-0.05-15.6-0.02-31.19-0.02-46.79c0-0.62,0-1.23,0-1.96c5.71,0,11.29,0,17.05,0
			c0.04,0.58,0.12,1.18,0.12,1.78c0.01,15.65-0.11,31.3,0.04,46.94c0.15,15.97-10.59,28.96-24.65,32.65
			c-1.9,0.5-3.85,0.76-5.78,1.14C320.76,151.6,318.99,151.6,317.22,151.6z"/>
		<path class="st0" d="M390.74,126.6c0,7.68,0,15.15,0,22.69c-5.74,0-11.32,0-17.01,0c0-26.76,0-53.45,0-80.31c0.64,0,1.2,0,1.76,0
			c10.24,0,20.49-0.01,30.73,0c14.39,0.01,26.2,9.87,28.81,24.04c2.89,15.74-8.97,31.78-24.87,33.25
			c-5.62,0.52-11.32,0.25-16.98,0.33C392.45,126.61,391.72,126.6,390.74,126.6z M390.83,110.46c4.8,0,9.46,0.03,14.12-0.01
			c6.89-0.06,12.47-5.79,12.47-12.73c-0.01-6.89-5.67-12.58-12.58-12.62c-4.21-0.02-8.41-0.01-12.62,0c-0.45,0-0.9,0.06-1.4,0.1
			C390.83,93.62,390.83,101.92,390.83,110.46z"/>
		<path class="st0" d="M469.41,126.6c0,7.63,0,15.09,0,22.66c-5.73,0-11.32,0-17.04,0c0-26.69,0-53.38,0-80.29c0.55,0,1.1,0,1.65,0
			c10.29,0,20.59-0.01,30.88,0c14.35,0.01,26.27,10.02,28.74,24.12c2.78,15.86-8.96,31.65-24.97,33.17
			c-5.72,0.54-11.53,0.25-17.29,0.33C470.78,126.6,470.17,126.6,469.41,126.6z M469.44,110.46c4.8,0,9.46,0.03,14.12-0.01
			c6.89-0.06,12.48-5.79,12.47-12.72c-0.01-6.89-5.67-12.59-12.57-12.62c-4.21-0.02-8.41-0.01-12.62,0c-0.45,0-0.9,0.06-1.4,0.1
			C469.44,93.62,469.44,101.92,469.44,110.46z"/>
		<path class="st0" d="M555.81,103.6c5.76-11.68,11.39-23.12,17.04-34.59c5.85,0,11.66,0,17.73,0c-0.31,0.65-0.54,1.2-0.81,1.73
			c-8.24,15.96-16.49,31.92-24.7,47.9c-0.45,0.88-0.72,1.96-0.72,2.95c-0.06,8.58-0.03,17.16-0.03,25.74c0,0.61,0,1.23,0,1.94
			c-5.74,0-11.32,0-17.13,0c0-0.55,0-1.1,0-1.65c0-8.68,0.02-17.37-0.03-26.05c-0.01-1.04-0.27-2.17-0.74-3.1
			c-8.18-15.94-16.41-31.85-24.62-47.77c-0.26-0.5-0.49-1.01-0.85-1.74c2.02,0,3.87,0,5.71,0c3.54,0,7.07,0.05,10.61-0.03
			c1.1-0.02,1.62,0.34,2.1,1.33c5.14,10.55,10.35,21.06,15.53,31.59C555.15,102.36,555.41,102.84,555.81,103.6z"/>
	</g>
</g>
</svg>
