<svg width="30" height="30" viewBox="0 0 50 50" fill="none" xmlns="http://www.w3.org/2000/svg">
<path d="M4.6875 21.875H45.3125V31.25H4.6875V21.875Z" fill="#DBB471"/>
<path d="M6.25 28.9062V21.875H43.75V28.9062C43.75 28.9062 46.875 28.9062 46.875 32.8125C46.875 36.7188 43.75 36.7188 43.75 36.7188C43.75 42.9688 29.6875 48.4375 25 48.4375C20.3125 48.4375 6.25 42.9688 6.25 36.7188C6.25 36.7188 3.125 36.7188 3.125 32.8125C3.125 28.9062 6.25 28.9062 6.25 28.9062Z" fill="#FED0AC"/>
<path d="M15.625 27.9688C11.7188 27.9688 10.1562 29.375 10.1562 30.7813C10.1562 32.1875 10.1563 34.2188 15.3125 34.2188C20.3125 34.2188 21.0938 33.5938 21.0938 31.4844C21.0938 30.0781 19.5312 27.9688 15.625 27.9688Z" fill="#F5F5F5"/>
<path d="M16.0156 33.8281C17.9573 33.8281 19.5312 32.2541 19.5312 30.3125C19.5312 28.3709 17.9573 26.7969 16.0156 26.7969C14.074 26.7969 12.5 28.3709 12.5 30.3125C12.5 32.2541 14.074 33.8281 16.0156 33.8281Z" fill="#664E27"/>
<path d="M17.1875 30.3125C17.1875 30.9375 16.6406 31.4844 16.0156 31.4844C15.3906 31.4844 14.8438 30.9375 14.8438 30.3125C14.8438 29.6875 15.3906 29.1406 16.0156 29.1406C16.6406 29.1406 17.1875 29.6875 17.1875 30.3125Z" fill="#231F20"/>
<path d="M10.1562 30.7031C10.1562 25.2344 21.0938 25.2344 21.0938 31.4844C19.5312 26.7969 11.7188 26.7969 10.1562 30.7031Z" fill="#664E27"/>
<path d="M34.375 27.9688C38.2812 27.9688 39.8438 29.375 39.8438 30.7813C39.8438 32.1875 39.8438 34.2188 34.6875 34.2188C29.6875 34.2188 28.9062 33.5938 28.9062 31.4844C28.9062 30.0781 30.4688 27.9688 34.375 27.9688Z" fill="#F5F5F5"/>
<path d="M33.9844 33.8281C35.926 33.8281 37.5 32.2541 37.5 30.3125C37.5 28.3709 35.926 26.7969 33.9844 26.7969C32.0427 26.7969 30.4688 28.3709 30.4688 30.3125C30.4688 32.2541 32.0427 33.8281 33.9844 33.8281Z" fill="#664E27"/>
<path d="M32.8125 30.3125C32.8125 30.9375 33.3594 31.4844 33.9844 31.4844C34.6094 31.4844 35.1562 30.9375 35.1562 30.3125C35.1562 29.6875 34.6094 29.1406 33.9844 29.1406C33.3594 29.1406 32.8125 29.6875 32.8125 30.3125Z" fill="#231F20"/>
<path d="M39.8438 30.7031C39.8438 25.2344 28.9062 25.2344 28.9062 31.4844C30.4688 26.7969 38.2812 26.7969 39.8438 30.7031Z" fill="#664E27"/>
<path d="M32.0312 39.7656C32.0312 42.4219 28.5156 43.75 25 43.75C21.4844 43.75 17.9688 42.4219 17.9688 39.7656C17.9688 39.7656 17.9687 39.0625 18.6719 39.0625H31.3281C32.0312 39.0625 32.0312 39.7656 32.0312 39.7656Z" fill="#664E27"/>
<path d="M46.0938 24.2188H3.90625C3.90625 12.9688 9.21875 4.29688 25 4.29688C40.7812 4.29688 46.0938 12.9688 46.0938 24.2188Z" fill="#FF9430"/>
<path d="M19.1406 24.2188H16.0156V5.54687L19.1406 4.60938V24.2188Z" fill="#DB802B"/>
<path d="M33.9844 24.2188H30.8594V4.60938L33.9844 5.54687V24.2188Z" fill="#DB802B"/>
<path d="M48.4375 25.9375H1.5625C1.5625 21.9531 12.0312 18.6719 25 18.6719C37.9688 18.6719 48.4375 21.9531 48.4375 25.9375Z" fill="#DB802B"/>
<path d="M32.4219 21.6406H17.5781V5.15625C17.5781 0.390625 32.5 0.390625 32.5 5.15625V21.6406H32.4219Z" fill="#FF9430"/>
</svg>
