<svg width="18" height="18" viewBox="0 0 25 25" fill="none" xmlns="http://www.w3.org/2000/svg">
<path fill-rule="evenodd" clip-rule="evenodd" d="M12.5001 14.2857C16.3369 14.2857 19.4446 11.0893 19.4446 7.14286C19.4446 3.19643 16.3369 0 12.5001 0C8.6633 0 5.55566 3.19643 5.55566 7.14286C5.55566 11.0893 8.6633 14.2857 12.5001 14.2857ZM18.0557 7.14286C18.0557 10.3 15.5696 12.8571 12.5001 12.8571C9.43066 12.8571 6.94455 10.3 6.94455 7.14286C6.94455 3.98571 9.43066 1.42857 12.5001 1.42857C15.5696 1.42857 18.0557 3.98571 18.0557 7.14286Z" fill="white"/>
<path d="M18.0549 19.2857V17.8571H19.4438V19.2857H20.8327V20.7143H19.4438V22.1428H18.0549V20.7143H16.666V19.2857H18.0549Z" fill="white"/>
<path fill-rule="evenodd" clip-rule="evenodd" d="M7.63889 15.0093C7.98819 14.9272 9.02778 16.4286 9.02778 16.4286H15.9722C15.9722 16.4286 17.0118 14.9272 17.3611 15.0093C21.1139 15.8879 25 18.425 25 21.1214V25H0V21.1214C0 18.425 3.88611 15.8886 7.63889 15.0093ZM12.1882 17.8572H16.6882L17.1035 17.2572L17.1104 17.2479L17.1382 17.2086C17.2984 16.9843 17.4668 16.7663 17.6431 16.555C19.1604 16.9857 20.6458 17.6943 21.7694 18.5379C23.1042 19.5393 23.6111 20.4764 23.6111 21.1214V23.5714H1.38889V21.1214C1.38889 20.4764 1.89583 19.5393 3.23056 18.5379C4.35417 17.695 5.83958 16.9857 7.35694 16.555L7.40903 16.6164C7.56712 16.8079 7.71815 17.0054 7.8618 17.2086L7.88958 17.2479L7.89653 17.2572L8.3118 17.8572H12.1882Z" fill="white"/>
</svg>
