<svg width="23" height="18" viewBox="0 0 23 18" fill="none" xmlns="http://www.w3.org/2000/svg">
<path d="M19.75 17.9071C20.4793 17.9071 21.1788 17.6275 21.6945 17.1298C22.2103 16.6321 22.5 15.9571 22.5 15.2533C22.5 14.5495 22.2103 13.8745 21.6945 13.3769C21.1788 12.8792 20.4793 12.5996 19.75 12.5996C19.0207 12.5996 18.3212 12.8792 17.8055 13.3769C17.2897 13.8745 17 14.5495 17 15.2533C17 15.9571 17.2897 16.6321 17.8055 17.1298C18.3212 17.6275 19.0207 17.9071 19.75 17.9071Z" fill="#1565C0"/>
<rect width="20" height="2.5" rx="1.25" fill="#3475C1"/>
<rect y="7" width="20" height="2.5" rx="1.25" fill="#3475C1"/>
<rect y="14" width="12" height="2.5" rx="1.25" fill="#3475C1"/>
</svg>
