<svg width="20" height="20" viewBox="0 0 30 30" fill="none" xmlns="http://www.w3.org/2000/svg">
<path d="M13.2825 0.630192C13.7467 0.225493 14.3612 0 15 0C15.6388 0 16.2533 0.225493 16.7175 0.630192L28.8275 11.1871C29.5775 11.8395 30 12.7502 30 13.7001V26.5417C30 27.4589 29.6049 28.3385 28.9017 28.9871C28.1984 29.6356 27.2446 30 26.25 30H21.25C20.7573 30 20.2695 29.9105 19.8144 29.7365C19.3592 29.5626 18.9457 29.3077 18.5975 28.9863C18.2492 28.6649 17.973 28.2834 17.7847 27.8636C17.5964 27.4437 17.4997 26.9938 17.5 26.5394V20.7757C17.5 20.47 17.3683 20.1767 17.1339 19.9606C16.8995 19.7444 16.5815 19.6229 16.25 19.6229H13.75C13.4185 19.6229 13.1005 19.7444 12.8661 19.9606C12.6317 20.1767 12.5 20.47 12.5 20.7757V26.5394C12.5 27.4566 12.1049 28.3362 11.4017 28.9848C10.6984 29.6333 9.74456 29.9977 8.75 29.9977H3.75C2.75544 29.9977 1.80161 29.6333 1.09835 28.9848C0.395088 28.3362 0 27.4566 0 26.5394V13.6978C0 12.7479 0.425 11.8372 1.175 11.1848L13.2825 0.625581V0.630192ZM15 2.30399L2.89 12.8632C2.76706 12.9707 2.6691 13.1001 2.60205 13.2435C2.53501 13.387 2.50029 13.5416 2.5 13.6978V26.5394C2.5 26.8452 2.6317 27.1384 2.86612 27.3546C3.10054 27.5707 3.41848 27.6922 3.75 27.6922H8.75C9.08152 27.6922 9.39946 27.5707 9.63388 27.3546C9.8683 27.1384 10 26.8452 10 26.5394V20.7757C10 19.8585 10.3951 18.9789 11.0983 18.3303C11.8016 17.6818 12.7554 17.3174 13.75 17.3174H16.25C17.2446 17.3174 18.1984 17.6818 18.9017 18.3303C19.6049 18.9789 20 19.8585 20 20.7757V26.5394C20 26.8452 20.1317 27.1384 20.3661 27.3546C20.6005 27.5707 20.9185 27.6922 21.25 27.6922H26.25C26.5815 27.6922 26.8995 27.5707 27.1339 27.3546C27.3683 27.1384 27.5 26.8452 27.5 26.5394V13.6978C27.5 13.5412 27.4655 13.3862 27.3984 13.2423C27.3314 13.0984 27.2332 12.9686 27.11 12.8609L15 2.30399Z" fill="white"/>
</svg>
