<svg width="22" height="22" viewBox="0 0 30 30" fill="none" xmlns="http://www.w3.org/2000/svg">
<path d="M13.125 23.3333H16.0417V20.4167H13.125V23.3333ZM14.5833 0C6.53333 0 0 6.53333 0 14.5833C0 22.6333 6.53333 29.1667 14.5833 29.1667C22.6333 29.1667 29.1667 22.6333 29.1667 14.5833C29.1667 6.53333 22.6333 0 14.5833 0ZM14.5833 26.25C8.15208 26.25 2.91667 21.0146 2.91667 14.5833C2.91667 8.15208 8.15208 2.91667 14.5833 2.91667C21.0146 2.91667 26.25 8.15208 26.25 14.5833C26.25 21.0146 21.0146 26.25 14.5833 26.25ZM14.5833 5.83333C11.3604 5.83333 8.75 8.44375 8.75 11.6667H11.6667C11.6667 10.0625 12.9792 8.75 14.5833 8.75C16.1875 8.75 17.5 10.0625 17.5 11.6667C17.5 14.5833 13.125 14.2188 13.125 18.9583H16.0417C16.0417 15.6771 20.4167 15.3125 20.4167 11.6667C20.4167 8.44375 17.8063 5.83333 14.5833 5.83333Z" fill="white"/>
</svg>
