<?xml version="1.0" encoding="utf-8"?>
<svg viewBox="0 0 40 40" fill="none" xmlns="http://www.w3.org/2000/svg">
  <circle cx="20" cy="20" r="19" stroke="#C4C4C4" stroke-opacity="0.18" stroke-width="2"/>
  <path d="M 19.997 16.665 C 18.161 16.665 16.663 18.164 16.663 20 C 16.663 21.836 18.161 23.335 19.997 23.335 C 21.833 23.335 23.332 21.836 23.332 20 C 23.332 18.164 21.833 16.665 19.997 16.665 Z M 29.999 20 C 29.999 18.619 30.011 17.251 29.934 15.872 C 29.856 14.271 29.491 12.85 28.32 11.679 C 27.147 10.506 25.729 10.143 24.127 10.066 C 22.747 9.988 21.378 10.001 20 10.001 C 18.619 10.001 17.251 9.988 15.872 10.066 C 14.271 10.143 12.85 10.509 11.679 11.679 C 10.506 12.853 10.143 14.271 10.066 15.872 C 9.988 17.253 10.001 18.622 10.001 20 C 10.001 21.378 9.988 22.749 10.066 24.128 C 10.143 25.729 10.509 27.15 11.679 28.321 C 12.853 29.494 14.271 29.857 15.872 29.934 C 17.253 30.012 18.621 29.999 20 29.999 C 21.381 29.999 22.749 30.012 24.127 29.934 C 25.729 29.857 27.149 29.491 28.32 28.321 C 29.494 27.147 29.856 25.729 29.934 24.128 C 30.014 22.749 29.999 21.381 29.999 20 Z M 19.997 25.131 C 17.158 25.131 14.866 22.839 14.866 20 C 14.866 17.161 17.158 14.869 19.997 14.869 C 22.837 14.869 25.128 17.161 25.128 20 C 25.128 22.839 22.837 25.131 19.997 25.131 Z M 25.338 15.857 C 24.675 15.857 24.14 15.322 24.14 14.659 C 24.14 13.996 24.675 13.461 25.338 13.461 C 26.001 13.461 26.537 13.996 26.537 14.659 C 26.537 14.816 26.506 14.972 26.446 15.118 C 26.386 15.263 26.297 15.395 26.186 15.507 C 26.075 15.618 25.943 15.706 25.797 15.766 C 25.652 15.827 25.496 15.857 25.338 15.857 Z" fill="white" fill-opacity="0.95"/>
</svg>