<?xml version="1.0" encoding="utf-8"?>
<svg viewBox="0 0 70 70" fill="none" xmlns="http://www.w3.org/2000/svg">
  <circle cx="35" cy="35" r="35" fill="#FFCA28" fill-opacity="0.19"/>
  <path fill-rule="evenodd" clip-rule="evenodd" d="M 23.333 30 L 25 30 L 25 38.333 L 44.999 38.333 L 44.999 30 L 46.666 30 L 46.666 38.333 L 48.749 38.333 C 48.859 38.333 48.965 38.377 49.044 38.455 C 49.122 38.534 49.166 38.64 49.166 38.75 L 49.166 39.583 C 49.166 39.694 49.122 39.8 49.044 39.878 C 48.965 39.956 48.859 40 48.749 40 L 21.25 40 C 21.139 40 21.033 39.956 20.955 39.878 C 20.877 39.8 20.833 39.694 20.833 39.583 L 20.833 38.75 C 20.833 38.64 20.877 38.534 20.955 38.455 C 21.033 38.377 21.139 38.333 21.25 38.333 L 23.333 38.333 L 23.333 30 Z M 23.333 43.333 L 23.333 48.333 L 46.666 48.333 L 46.666 43.333 L 23.333 43.333 Z M 22.5 41.667 C 22.279 41.667 22.067 41.755 21.91 41.911 C 21.754 42.067 21.666 42.279 21.666 42.5 L 21.666 49.167 C 21.666 49.388 21.754 49.6 21.91 49.756 C 22.067 49.912 22.279 50 22.5 50 L 47.499 50 C 47.72 50 47.932 49.912 48.088 49.756 C 48.244 49.6 48.332 49.388 48.332 49.167 L 48.332 42.5 C 48.332 42.279 48.244 42.067 48.088 41.911 C 47.932 41.755 47.72 41.667 47.499 41.667 L 22.5 41.667 Z" fill="#FFCA28"/>
  <path fill-rule="evenodd" clip-rule="evenodd" d="M 23.491 21.667 L 21.703 26.594 C 21.679 26.66 21.667 26.73 21.667 26.8 L 21.667 28.792 C 21.667 29.466 22.206 30 22.857 30 C 23.507 30 24.047 29.467 24.047 28.793 C 24.047 28.571 24.135 28.36 24.291 28.203 C 24.448 28.047 24.66 27.959 24.881 27.959 C 25.102 27.959 25.314 28.047 25.47 28.203 C 25.626 28.36 25.714 28.571 25.714 28.793 C 25.714 29.466 26.254 30 26.905 30 C 27.555 30 28.095 29.467 28.095 28.793 C 28.095 28.571 28.183 28.36 28.339 28.203 C 28.495 28.047 28.707 27.959 28.928 27.959 C 29.149 27.959 29.361 28.047 29.517 28.203 C 29.674 28.36 29.761 28.571 29.761 28.793 C 29.761 29.466 30.301 30 30.952 30 C 31.602 30 32.142 29.467 32.142 28.793 C 32.142 28.572 32.23 28.36 32.386 28.204 C 32.543 28.048 32.755 27.96 32.976 27.96 C 33.197 27.96 33.408 28.048 33.565 28.204 C 33.721 28.36 33.809 28.572 33.809 28.793 C 33.81 29.467 34.35 30 35 30 C 35.65 30 36.19 29.467 36.19 28.793 C 36.19 28.571 36.278 28.36 36.435 28.203 C 36.591 28.047 36.803 27.959 37.024 27.959 C 37.245 27.959 37.457 28.047 37.613 28.203 C 37.769 28.36 37.857 28.571 37.857 28.793 C 37.857 29.466 38.396 30 39.047 30 C 39.697 30 40.237 29.467 40.238 28.793 C 40.238 28.572 40.326 28.36 40.482 28.204 C 40.638 28.048 40.85 27.96 41.071 27.96 C 41.292 27.96 41.504 28.048 41.66 28.204 C 41.817 28.36 41.904 28.572 41.904 28.793 C 41.904 29.467 42.444 30 43.094 30 C 43.745 30 44.285 29.467 44.285 28.793 C 44.285 28.571 44.373 28.36 44.529 28.203 C 44.686 28.047 44.898 27.959 45.119 27.959 C 45.34 27.959 45.551 28.047 45.708 28.203 C 45.864 28.36 45.952 28.571 45.952 28.793 C 45.952 29.466 46.491 30 47.142 30 C 47.793 30 48.332 29.467 48.332 28.793 L 48.332 26.801 C 48.332 26.73 48.32 26.66 48.296 26.594 L 46.508 21.667 L 23.492 21.667 L 23.491 21.667 Z M 46.479 21.587 L 46.598 21.543 L 46.479 21.587 Z M 45.119 30.822 C 44.854 31.09 44.539 31.303 44.191 31.448 C 43.844 31.593 43.471 31.667 43.094 31.667 C 42.718 31.667 42.345 31.593 41.998 31.448 C 41.65 31.303 41.335 31.09 41.071 30.822 C 40.807 31.09 40.492 31.303 40.144 31.448 C 39.796 31.593 39.424 31.667 39.047 31.667 C 38.671 31.667 38.298 31.593 37.95 31.448 C 37.603 31.303 37.288 31.09 37.024 30.822 C 36.759 31.09 36.444 31.303 36.097 31.448 C 35.749 31.593 35.376 31.667 35 31.667 C 34.623 31.667 34.25 31.593 33.903 31.448 C 33.555 31.303 33.24 31.09 32.976 30.822 C 32.711 31.09 32.396 31.303 32.049 31.448 C 31.701 31.593 31.329 31.667 30.952 31.667 C 30.16 31.667 29.444 31.343 28.928 30.822 C 28.664 31.09 28.349 31.303 28.001 31.448 C 27.654 31.593 27.281 31.667 26.905 31.667 C 26.528 31.667 26.155 31.593 25.808 31.448 C 25.46 31.303 25.145 31.09 24.881 30.822 C 24.616 31.09 24.302 31.302 23.954 31.447 C 23.607 31.593 23.235 31.667 22.858 31.667 C 21.272 31.667 20 30.373 20 28.793 L 20 26.801 C 20 26.537 20.046 26.274 20.136 26.026 L 21.952 21.018 C 22.06 20.719 22.257 20.462 22.517 20.28 C 22.776 20.098 23.085 20 23.402 20 L 46.598 20 C 46.915 20 47.224 20.098 47.483 20.281 C 47.743 20.463 47.939 20.72 48.047 21.018 L 49.863 26.026 C 49.954 26.274 50 26.537 50 26.801 L 50 28.793 C 49.999 30.373 48.727 31.667 47.142 31.667 C 46.765 31.667 46.393 31.593 46.045 31.448 C 45.698 31.303 45.383 31.09 45.119 30.822 Z" fill="#FFCA28"/>
  <path d="M 26.666 36.25 C 26.666 36.14 26.71 36.034 26.788 35.956 C 26.866 35.877 26.972 35.834 27.083 35.834 L 29.583 35.834 C 29.693 35.834 29.799 35.877 29.877 35.956 C 29.955 36.034 29.999 36.14 29.999 36.25 L 29.999 37.917 C 29.999 38.027 29.955 38.133 29.877 38.212 C 29.799 38.29 29.693 38.334 29.583 38.334 L 27.083 38.334 C 26.972 38.334 26.866 38.29 26.788 38.212 C 26.71 38.133 26.666 38.027 26.666 37.917 L 26.666 36.25 Z" fill="#FFCA28"/>
  <path d="M 28.333 37.083 C 28.333 36.973 28.377 36.867 28.455 36.789 C 28.533 36.71 28.639 36.667 28.75 36.667 L 31.25 36.667 C 31.36 36.667 31.466 36.71 31.544 36.789 C 31.622 36.867 31.666 36.973 31.666 37.083 L 31.666 37.917 C 31.666 38.027 31.622 38.133 31.544 38.211 C 31.466 38.289 31.36 38.333 31.25 38.333 L 28.75 38.333 C 28.639 38.333 28.533 38.289 28.455 38.211 C 28.377 38.133 28.333 38.027 28.333 37.917 L 28.333 37.083 Z" fill="#FFCA28"/>
  <path d="M 35 37.084 C 35 37.415 34.868 37.733 34.634 37.967 C 34.399 38.202 34.082 38.334 33.75 38.334 C 33.419 38.334 33.101 38.202 32.866 37.967 C 32.632 37.733 32.5 37.415 32.5 37.084 C 32.5 36.752 32.632 36.434 32.866 36.2 C 33.101 35.965 33.419 35.834 33.75 35.834 C 34.082 35.834 34.399 35.965 34.634 36.2 C 34.868 36.434 35 36.752 35 37.084 Z" fill="#FFCA28"/>
</svg>