<?xml version="1.0" encoding="utf-8"?>
<svg viewBox="0 0 70 70" fill="none" xmlns="http://www.w3.org/2000/svg">
  <circle cx="35" cy="35" r="35" fill="#A0F6E1" fill-opacity="0.52"/>
  <path d="M 36.125 33.125 C 35.375 32.938 34.625 32.563 34.063 32 C 33.5 31.813 33.313 31.25 33.313 30.875 C 33.313 30.5 33.5 29.938 33.875 29.75 C 34.438 29.375 35 29 35.563 29.188 C 36.688 29.188 37.625 29.75 38.188 30.5 L 39.875 28.25 C 39.313 27.688 38.75 27.313 38.188 26.938 C 37.625 26.563 36.875 26.375 36.125 26.375 L 36.125 23.75 L 33.875 23.75 L 33.875 26.375 C 32.938 26.563 32 27.125 31.25 27.875 C 30.5 28.813 29.938 29.938 30.125 31.063 C 30.125 32.188 30.5 33.313 31.25 34.063 C 32.188 35 33.5 35.563 34.625 36.125 C 35.188 36.313 35.938 36.688 36.5 37.063 C 36.875 37.438 37.063 38 37.063 38.563 C 37.063 39.125 36.875 39.688 36.5 40.25 C 35.938 40.813 35.188 41 34.625 41 C 33.875 41 32.938 40.813 32.375 40.25 C 31.813 39.875 31.25 39.313 30.875 38.75 L 29 40.813 C 29.563 41.563 30.125 42.125 30.875 42.688 C 31.813 43.25 32.938 43.813 34.063 43.813 L 34.063 46.25 L 36.125 46.25 L 36.125 43.438 C 37.25 43.25 38.188 42.688 38.938 41.938 C 39.875 41 40.438 39.5 40.438 38.188 C 40.438 37.063 40.063 35.75 39.125 35 C 38.188 34.063 37.25 33.5 36.125 33.125 Z M 35 20 C 26.75 20 20 26.75 20 35 C 20 43.25 26.75 50 35 50 C 43.25 50 50 43.25 50 35 C 50 26.75 43.25 20 35 20 Z M 35 47.938 C 27.875 47.938 22.063 42.125 22.063 35 C 22.063 27.875 27.875 22.063 35 22.063 C 42.125 22.063 47.938 27.875 47.938 35 C 47.938 42.125 42.125 47.938 35 47.938 Z" fill="#33F274"/>
</svg>