<?xml version="1.0" encoding="utf-8"?>
<svg viewBox="0 0 70 70" fill="none" xmlns="http://www.w3.org/2000/svg">
  <circle cx="35" cy="35" r="35" fill="#F436EC" fill-opacity="0.2"/>
  <path d="M 31.25 25.625 C 31.25 27.117 30.657 28.548 29.602 29.602 C 28.548 30.657 27.117 31.25 25.625 31.25 C 24.133 31.25 22.702 30.657 21.648 29.602 C 20.593 28.548 20 27.117 20 25.625 C 20 24.133 20.593 22.702 21.648 21.648 C 22.702 20.593 24.133 20 25.625 20 C 27.117 20 28.548 20.593 29.602 21.648 C 30.657 22.702 31.25 24.133 31.25 25.625 Z M 21.875 25.625 C 21.875 26.62 22.27 27.573 22.973 28.277 C 23.677 28.98 24.63 29.375 25.625 29.375 C 26.62 29.375 27.573 28.98 28.277 28.277 C 28.98 27.573 29.375 26.62 29.375 25.625 C 29.375 24.63 28.98 23.677 28.277 22.973 C 27.573 22.27 26.62 21.875 25.625 21.875 C 24.63 21.875 23.677 22.27 22.973 22.973 C 22.27 23.677 21.875 24.63 21.875 25.625 Z" fill="#F436EC"/>
  <path d="M 36.875 31.25 L 37.813 31.25 C 38.722 31.25 39.601 31.58 40.285 32.18 C 40.969 32.779 41.412 33.607 41.531 34.509 L 47.362 31.918 C 47.647 31.79 47.96 31.737 48.272 31.761 C 48.583 31.785 48.884 31.887 49.146 32.057 C 49.408 32.227 49.623 32.46 49.772 32.735 C 49.922 33.009 50 33.317 50 33.629 L 50 47.621 C 50 47.933 49.922 48.24 49.772 48.514 C 49.623 48.789 49.408 49.022 49.146 49.192 C 48.884 49.362 48.584 49.463 48.273 49.488 C 47.962 49.513 47.649 49.459 47.364 49.332 L 41.531 46.741 C 41.412 47.643 40.969 48.471 40.285 49.07 C 39.601 49.67 38.722 50 37.813 50 L 23.75 50 C 22.755 50 21.802 49.605 21.098 48.902 C 20.395 48.198 20 47.245 20 46.25 L 20 35 C 20 34.005 20.395 33.052 21.098 32.348 C 21.802 31.645 22.755 31.25 23.75 31.25 L 36.875 31.25 Z M 48.125 47.619 L 48.125 33.631 L 41.563 36.547 L 41.563 44.703 L 48.125 47.621 L 48.125 47.619 Z M 21.875 35 L 21.875 46.25 C 21.875 46.747 22.073 47.224 22.424 47.576 C 22.776 47.927 23.253 48.125 23.75 48.125 L 37.813 48.125 C 38.31 48.125 38.787 47.927 39.138 47.576 C 39.49 47.224 39.688 46.747 39.688 46.25 L 39.688 35 C 39.688 34.503 39.49 34.026 39.138 33.674 C 38.787 33.323 38.31 33.125 37.813 33.125 L 23.75 33.125 C 23.253 33.125 22.776 33.323 22.424 33.674 C 22.073 34.026 21.875 34.503 21.875 35 Z" fill="#F436EC"/>
  <path d="M 36.875 31.25 C 38.367 31.25 39.798 30.657 40.853 29.602 C 41.907 28.548 42.5 27.117 42.5 25.625 C 42.5 24.133 41.907 22.702 40.853 21.648 C 39.798 20.593 38.367 20 36.875 20 C 35.383 20 33.952 20.593 32.898 21.648 C 31.843 22.702 31.25 24.133 31.25 25.625 C 31.25 27.117 31.843 28.548 32.898 29.602 C 33.952 30.657 35.383 31.25 36.875 31.25 Z M 33.125 25.625 C 33.125 24.63 33.52 23.677 34.223 22.973 C 34.927 22.27 35.88 21.875 36.875 21.875 C 37.87 21.875 38.823 22.27 39.527 22.973 C 40.23 23.677 40.625 24.63 40.625 25.625 C 40.625 26.62 40.23 27.573 39.527 28.277 C 38.823 28.98 37.87 29.375 36.875 29.375 C 35.88 29.375 34.927 28.98 34.223 28.277 C 33.52 27.573 33.125 26.62 33.125 25.625 Z" fill="#F436EC"/>
</svg>