<svg width="25" height="25" viewBox="0 0 30 30" fill="none" xmlns="http://www.w3.org/2000/svg">
<circle cx="15" cy="15" r="15" fill="#1565C0"/>
<path d="M22.0106 15.3959C22.3256 14.9918 22.5 14.4967 22.5 13.9816C22.5 13.1644 22.0294 12.3908 21.2719 11.9594C21.0769 11.8484 20.8548 11.7899 20.6288 11.7901H16.1325L16.245 9.55316C16.2713 9.01257 16.0744 8.49928 15.6919 8.10795C15.5042 7.91506 15.2777 7.76159 15.0265 7.65703C14.7752 7.55247 14.5046 7.49903 14.2313 7.50001C13.2563 7.50001 12.3938 8.13707 12.135 9.04897L10.5244 14.7097H10.5188V22.5H19.3744C19.5469 22.5 19.7156 22.4672 19.8713 22.4017C20.7638 22.0322 21.3394 21.1858 21.3394 20.2466C21.3394 20.0173 21.3056 19.7916 21.2381 19.5732C21.5531 19.1691 21.7275 18.674 21.7275 18.1589C21.7275 17.9296 21.6938 17.7039 21.6263 17.4854C21.9413 17.0814 22.1156 16.5863 22.1156 16.0712C22.1119 15.8418 22.0781 15.6143 22.0106 15.3959ZM7.5 15.2921V21.9175C7.5 22.2397 7.76812 22.5 8.1 22.5H9.31875V14.7097H8.1C7.76812 14.7097 7.5 14.97 7.5 15.2921Z" fill="white"/>
</svg>
