<svg width="21" height="24" viewBox="0 0 31 34" fill="none" xmlns="http://www.w3.org/2000/svg">
<path d="M27.0625 18.1776V15.1875H24.75V18.6562C24.7501 18.9629 24.8719 19.2569 25.0888 19.4737L28.2188 22.6037V24.4375H2.78125V22.6037L5.91122 19.4737C6.12807 19.2569 6.24993 18.9629 6.25 18.6562V14.0312C6.24678 12.4065 6.67238 10.8096 7.48382 9.40199C8.29526 7.99435 9.4638 6.82577 10.8714 6.01428C12.279 5.20279 13.8759 4.77714 15.5006 4.7803C17.1254 4.78347 18.7206 5.21534 20.125 6.03231V3.44809C19.0244 2.96076 17.8537 2.65015 16.6562 2.52772V0.15625H14.3438V2.52656C11.4931 2.8167 8.85129 4.15354 6.92915 6.27857C5.00701 8.40361 3.94109 11.1659 3.9375 14.0312V18.1776L0.807531 21.3075C0.590677 21.5243 0.468815 21.8184 0.46875 22.125V25.5938C0.46875 25.9004 0.590569 26.1945 0.807408 26.4113C1.02425 26.6282 1.31834 26.75 1.625 26.75H9.71875V27.9062C9.71875 29.4395 10.3278 30.91 11.412 31.9942C12.4962 33.0784 13.9667 33.6875 15.5 33.6875C17.0333 33.6875 18.5038 33.0784 19.588 31.9942C20.6722 30.91 21.2812 29.4395 21.2812 27.9062V26.75H29.375C29.6817 26.75 29.9758 26.6282 30.1926 26.4113C30.4094 26.1945 30.5312 25.9004 30.5312 25.5938V22.125C30.5312 21.8184 30.4093 21.5243 30.1925 21.3075L27.0625 18.1776ZM18.9688 27.9062C18.9687 28.8262 18.6033 29.7085 17.9528 30.359C17.3023 31.0095 16.42 31.375 15.5 31.375C14.58 31.375 13.6977 31.0095 13.0472 30.359C12.3967 29.7085 12.0312 28.8262 12.0312 27.9062V26.75H18.9688V27.9062Z" fill="white"/>
</svg>
