<svg width="23" height="23" viewBox="0 0 33 33" fill="none" xmlns="http://www.w3.org/2000/svg">
<path d="M9.96133 17.8632C9.7873 18.237 9.7873 18.6656 9.96133 19.0362C11.3857 22.043 13.5868 23.5898 16.5162 23.5898C19.4456 23.5898 21.6467 22.0397 23.0711 19.0362C23.2451 18.6656 23.2451 18.237 23.0743 17.8664L23.0711 17.8632L23.0679 17.86C21.6467 14.8564 19.4456 13.3096 16.5162 13.3096C13.5868 13.3096 11.3857 14.8597 9.96133 17.8632ZM16.5162 15.3721C18.5175 15.3721 19.9773 16.3389 21.0634 18.4497C19.9806 20.5605 18.5175 21.5273 16.5162 21.5273C14.5149 21.5273 13.0551 20.5605 11.969 18.4497C13.0551 16.3389 14.5149 15.3721 16.5162 15.3721Z" fill="white" fill-opacity="0.88"/>
<path d="M14.7275 18.4658C14.7275 18.9445 14.9177 19.4035 15.2561 19.7419C15.5946 20.0804 16.0536 20.2705 16.5322 20.2705C17.0109 20.2705 17.4699 20.0804 17.8083 19.7419C18.1468 19.4035 18.3369 18.9445 18.3369 18.4658C18.3369 17.9872 18.1468 17.5282 17.8083 17.1897C17.4699 16.8513 17.0109 16.6611 16.5322 16.6611C16.0536 16.6611 15.5946 16.8513 15.2561 17.1897C14.9177 17.5282 14.7275 17.9872 14.7275 18.4658Z" fill="white" fill-opacity="0.88"/>
<path d="M28.3594 9.61641H16.79L13.0099 6.00059C12.9615 5.95547 12.8971 5.92969 12.8326 5.92969H4.64062C4.07021 5.92969 3.60938 6.39053 3.60938 6.96094V26.0391C3.60938 26.6095 4.07021 27.0703 4.64062 27.0703H28.3594C28.9298 27.0703 29.3906 26.6095 29.3906 26.0391V10.6477C29.3906 10.0772 28.9298 9.61641 28.3594 9.61641ZM27.0703 24.75H5.92969V8.25H12.0044L15.8587 11.9367H27.0703V24.75Z" fill="white" fill-opacity="0.88"/>
</svg>
