<svg width="22" height="20" viewBox="0 0 30 28" fill="none" xmlns="http://www.w3.org/2000/svg">
<path d="M27.2727 5.6H16.9227L21.4091 0.994L20.4545 0L15 5.6L9.54545 0L8.57727 0.994L13.0773 5.6H2.72727C2.00396 5.6 1.31026 5.895 0.7988 6.4201C0.287337 6.9452 0 7.65739 0 8.4V25.2C0 26.74 1.22727 28 2.72727 28H27.2727C28.7727 28 30 26.74 30 25.2V8.4C30 7.65739 29.7127 6.9452 29.2012 6.4201C28.6897 5.895 27.996 5.6 27.2727 5.6ZM27.2727 25.2H2.72727V8.4H27.2727V25.2ZM10.9091 11.2V22.4L20.4545 16.8L10.9091 11.2Z" fill="white" fill-opacity="0.88"/>
</svg>
