<svg width="20" height="20" viewBox="0 0 30 30" fill="none" xmlns="http://www.w3.org/2000/svg">
<path d="M15 30C12.2852 30 9.77539 29.3311 7.4707 27.9932C5.16602 26.6553 3.34473 24.834 2.00684 22.5293C0.668945 20.2246 0 17.7148 0 15C0 12.2852 0.668945 9.77539 2.00684 7.4707C3.34473 5.16602 5.16602 3.34473 7.4707 2.00684C9.77539 0.668945 12.2852 0 15 0C17.7148 0 20.2246 0.668945 22.5293 2.00684C24.834 3.34473 26.6553 5.16602 27.9932 7.4707C29.3311 9.77539 30 12.2852 30 15C30 17.7148 29.3311 20.2246 27.9932 22.5293C26.6553 24.834 24.834 26.6553 22.5293 27.9932C20.2246 29.3311 17.7148 30 15 30ZM11.25 27.5684C12.4805 27.9395 13.7305 28.125 15 28.125C16.2695 28.125 17.5195 27.9395 18.75 27.5684V21.4746C17.5977 22.1582 16.3525 22.5 15.0146 22.5C13.6768 22.5 12.4219 22.1582 11.25 21.4746V27.5684ZM8.52539 11.25H2.43164C2.06055 12.4805 1.875 13.7305 1.875 15C1.875 16.2695 2.06055 17.5195 2.43164 18.75H8.52539C7.8418 17.5781 7.5 16.3281 7.5 15C7.5 13.6719 7.8418 12.4219 8.52539 11.25ZM18.75 2.43164C17.5195 2.06055 16.2695 1.875 15 1.875C13.7305 1.875 12.4805 2.06055 11.25 2.43164V8.52539C12.4219 7.8418 13.6719 7.5 15 7.5C16.3281 7.5 17.5781 7.8418 18.75 8.52539V2.43164ZM15 9.375C13.4375 9.375 12.1094 9.92188 11.0156 11.0156C9.92188 12.1094 9.375 13.4375 9.375 15C9.375 16.5625 9.92188 17.8906 11.0156 18.9844C12.1094 20.0781 13.4375 20.625 15 20.625C16.5625 20.625 17.8906 20.0781 18.9844 18.9844C20.0781 17.8906 20.625 16.5625 20.625 15C20.625 13.4375 20.0781 12.1094 18.9844 11.0156C17.8906 9.92188 16.5625 9.375 15 9.375ZM21.4746 11.25C22.1582 12.4219 22.5 13.6719 22.5 15C22.5 16.3281 22.1582 17.5781 21.4746 18.75H27.5684C27.9395 17.5195 28.125 16.2695 28.125 15C28.125 13.7305 27.9395 12.4805 27.5684 11.25H21.4746Z" fill="white"/>
</svg>
