<svg width="18" height="16" viewBox="0 0 26 24" fill="none" xmlns="http://www.w3.org/2000/svg">
<path d="M24.8182 0H1.18182C0.86838 0 0.56778 0.126428 0.346146 0.351472C0.124513 0.576515 0 0.88174 0 1.2V10.8C0 11.1183 0.124513 11.4235 0.346146 11.6485C0.56778 11.8736 0.86838 12 1.18182 12H4.72727V22.8C4.72727 23.1183 4.85179 23.4235 5.07342 23.6485C5.29505 23.8736 5.59565 24 5.90909 24H20.0909C20.4043 24 20.7049 23.8736 20.9266 23.6485C21.1482 23.4235 21.2727 23.1183 21.2727 22.8V12H24.8182C25.1316 12 25.4322 11.8736 25.6539 11.6485C25.8755 11.4235 26 11.1183 26 10.8V1.2C26 0.88174 25.8755 0.576515 25.6539 0.351472C25.4322 0.126428 25.1316 0 24.8182 0V0ZM7.09091 21.6V19.2C7.71778 19.2 8.31898 19.4529 8.76225 19.9029C9.20552 20.353 9.45455 20.9635 9.45455 21.6H7.09091ZM18.9091 21.6H16.5455C16.5455 20.9635 16.7945 20.353 17.2377 19.9029C17.681 19.4529 18.2822 19.2 18.9091 19.2V21.6ZM18.9091 16.8C17.6553 16.8 16.4529 17.3057 15.5664 18.2059C14.6799 19.1061 14.1818 20.327 14.1818 21.6H11.8182C11.8182 20.327 11.3201 19.1061 10.4336 18.2059C9.54706 17.3057 8.34466 16.8 7.09091 16.8V7.2H18.9091V16.8ZM23.6364 9.6H21.2727V6C21.2727 5.68174 21.1482 5.37652 20.9266 5.15147C20.7049 4.92643 20.4043 4.8 20.0909 4.8H5.90909C5.59565 4.8 5.29505 4.92643 5.07342 5.15147C4.85179 5.37652 4.72727 5.68174 4.72727 6V9.6H2.36364V2.4H23.6364V9.6ZM13 15.6C13.7012 15.6 14.3867 15.3889 14.9697 14.9933C15.5528 14.5977 16.0072 14.0355 16.2756 13.3777C16.5439 12.7198 16.6141 11.996 16.4773 11.2977C16.3405 10.5993 16.0029 9.95788 15.507 9.45442C15.0112 8.95095 14.3794 8.60808 13.6917 8.46917C13.0039 8.33027 12.2911 8.40156 11.6432 8.67403C10.9954 8.94651 10.4416 9.40793 10.0521 9.99995C9.66248 10.592 9.45455 11.288 9.45455 12C9.45455 12.9548 9.82808 13.8705 10.493 14.5456C11.1579 15.2207 12.0597 15.6 13 15.6ZM13 10.8C13.2337 10.8 13.4622 10.8704 13.6566 11.0022C13.8509 11.1341 14.0024 11.3215 14.0919 11.5408C14.1813 11.7601 14.2047 12.0013 14.1591 12.2341C14.1135 12.4669 14.001 12.6807 13.8357 12.8485C13.6704 13.0164 13.4598 13.1306 13.2306 13.1769C13.0013 13.2232 12.7637 13.1995 12.5477 13.1087C12.3318 13.0178 12.1472 12.864 12.0174 12.6667C11.8875 12.4693 11.8182 12.2373 11.8182 12C11.8182 11.6817 11.9427 11.3765 12.1643 11.1515C12.386 10.9264 12.6866 10.8 13 10.8V10.8Z" fill="white"/>
</svg>
