<svg width="18" height="18" viewBox="0 0 25 25" fill="none" xmlns="http://www.w3.org/2000/svg">
<path fill-rule="evenodd" clip-rule="evenodd" d="M20.139 0C19.5865 0 19.0566 0.219493 18.6659 0.610194C18.2752 1.0009 18.0557 1.5308 18.0557 2.08333V22.9167C18.0557 23.4692 18.2752 23.9991 18.6659 24.3898C19.0566 24.7805 19.5865 25 20.139 25H22.9168C23.4693 25 23.9992 24.7805 24.3899 24.3898C24.7806 23.9991 25.0001 23.4692 25.0001 22.9167V2.08333C25.0001 1.5308 24.7806 1.0009 24.3899 0.610194C23.9992 0.219493 23.4693 0 22.9168 0H20.139ZM19.4446 2.08333C19.4446 1.89916 19.5177 1.72252 19.648 1.59229C19.7782 1.46205 19.9548 1.38889 20.139 1.38889H22.9168C23.101 1.38889 23.2776 1.46205 23.4078 1.59229C23.5381 1.72252 23.6112 1.89916 23.6112 2.08333V22.9167C23.6112 23.1008 23.5381 23.2775 23.4078 23.4077C23.2776 23.5379 23.101 23.6111 22.9168 23.6111H20.139C19.9548 23.6111 19.7782 23.5379 19.648 23.4077C19.5177 23.2775 19.4446 23.1008 19.4446 22.9167V2.08333Z" fill="white"/>
<path fill-rule="evenodd" clip-rule="evenodd" d="M9.02783 10.4166C9.02783 9.86411 9.24733 9.33421 9.63803 8.94351C10.0287 8.55281 10.5586 8.33331 11.1112 8.33331H13.8889C14.4415 8.33331 14.9714 8.55281 15.3621 8.94351C15.7528 9.33421 15.9723 9.86411 15.9723 10.4166V22.9166C15.9723 23.4692 15.7528 23.9991 15.3621 24.3898C14.9714 24.7805 14.4415 25 13.8889 25H11.1112C10.5586 25 10.0287 24.7805 9.63803 24.3898C9.24733 23.9991 9.02783 23.4692 9.02783 22.9166V10.4166ZM11.1112 9.7222C10.927 9.7222 10.7504 9.79537 10.6201 9.9256C10.4899 10.0558 10.4167 10.2325 10.4167 10.4166V22.9166C10.4167 23.1008 10.4899 23.2775 10.6201 23.4077C10.7504 23.5379 10.927 23.6111 11.1112 23.6111H13.8889C14.0731 23.6111 14.2498 23.5379 14.38 23.4077C14.5102 23.2775 14.5834 23.1008 14.5834 22.9166V10.4166C14.5834 10.2325 14.5102 10.0558 14.38 9.9256C14.2498 9.79537 14.0731 9.7222 13.8889 9.7222H11.1112Z" fill="white"/>
<path d="M0 18.75C0 18.1975 0.219493 17.6676 0.610194 17.2769C1.0009 16.8861 1.5308 16.6667 2.08333 16.6667H4.86111C5.41365 16.6667 5.94355 16.8861 6.33425 17.2769C6.72495 17.6676 6.94444 18.1975 6.94444 18.75V22.9167C6.94444 23.4692 6.72495 23.9991 6.33425 24.3898C5.94355 24.7805 5.41365 25 4.86111 25H2.08333C1.5308 25 1.0009 24.7805 0.610194 24.3898C0.219493 23.9991 0 23.4692 0 22.9167V18.75Z" fill="white"/>
</svg>
