<svg width="30" height="30" viewBox="0 0 40 40" fill="none" xmlns="http://www.w3.org/2000/svg">
<circle cx="20" cy="20" r="20" fill="#1565C0"/>
<path d="M32.265 14.8809C32.1966 14.7376 32.0888 14.6167 31.954 14.5325C31.8193 14.4483 31.6634 14.4043 31.5046 14.4056L11.9771 14.5068C11.8078 14.51 11.6436 14.5646 11.5062 14.6633C11.3688 14.7619 11.2648 14.9001 11.2079 15.0593C11.151 15.2185 11.1439 15.3913 11.1877 15.5547C11.2314 15.7181 11.3239 15.8644 11.4527 15.9742L17.2397 21.0773L24.004 17.8665L24.7164 19.3688L17.9257 22.579L18.2196 30.2853C18.2257 30.4521 18.2817 30.6133 18.3805 30.7479C18.4793 30.8826 18.6162 30.9846 18.7736 31.0407C18.9336 31.0942 19.1059 31.098 19.268 31.0517C19.4301 31.0053 19.5742 30.911 19.6815 30.7811L32.1356 15.7637C32.2387 15.644 32.3056 15.4975 32.3285 15.3412C32.3515 15.1848 32.3294 15.0252 32.265 14.8809Z" fill="white"/>
</svg>
