<svg width="18" height="18" viewBox="0 0 27 27" fill="none" xmlns="http://www.w3.org/2000/svg">
<path d="M10.8214 1V4.57143L9.03571 5.46429L6.35714 2.78571L2.78571 6.35714L5.46429 9.03571L4.57143 10.8214H1V16.1786H4.57143L5.46429 17.9643L2.78571 20.6429L6.35714 24.2143L9.03571 21.5357L10.8214 22.4286V26H16.1786V22.4286L17.9643 21.5357L20.6429 24.2143L24.2143 20.6429L21.5357 17.9643L22.4286 16.1786H26V10.8214H22.4286L21.5357 9.03571L24.2143 6.35714L20.6429 2.78571L17.9643 5.46429L16.1786 4.57143V1H10.8214Z" stroke="white" stroke-width="2" stroke-linecap="round" stroke-linejoin="round"/>
<path d="M13.4999 17.0714C15.4723 17.0714 17.0713 15.4724 17.0713 13.5C17.0713 11.5275 15.4723 9.92856 13.4999 9.92856C11.5274 9.92856 9.92847 11.5275 9.92847 13.5C9.92847 15.4724 11.5274 17.0714 13.4999 17.0714Z" stroke="white" stroke-width="2" stroke-linecap="round" stroke-linejoin="round"/>
</svg>
