<?xml version="1.0" encoding="utf-8"?>
<svg viewBox="0 0 40 40" fill="none" xmlns="http://www.w3.org/2000/svg">
  <circle cx="20" cy="20" r="19" stroke="#C4C4C4" stroke-opacity="0.18" stroke-width="2"/>
  <path d="M 27.051 11.65 C 27.051 11.65 28.624 10.915 28.492 12.702 C 28.449 13.437 28.056 16.013 27.75 18.799 L 26.702 27.051 C 26.702 27.051 26.614 28.26 25.828 28.47 C 25.042 28.68 23.862 27.734 23.644 27.524 C 23.469 27.366 20.368 25.001 19.275 23.845 C 18.969 23.529 18.62 22.899 19.319 22.163 L 23.906 16.906 C 24.43 16.276 24.954 14.804 22.77 16.591 L 16.654 21.584 C 16.654 21.584 15.955 22.11 14.645 21.637 L 11.805 20.586 C 11.805 20.586 10.757 19.797 12.548 19.009 C 16.916 16.539 22.289 14.016 27.05 11.65 L 27.051 11.65 Z" fill="white" fill-opacity="0.95"/>
</svg>