<?xml version="1.0" encoding="utf-8"?>
<svg viewBox="0 0 40 40" fill="none" xmlns="http://www.w3.org/2000/svg">
  <circle cx="20" cy="20" r="19" stroke="#C4C4C4" stroke-opacity="0.18" stroke-width="2"/>
  <path d="M 28.5 13.519 C 27.875 13.851 27.195 14.09 26.494 14.183 C 27.222 13.651 27.766 12.811 28.026 11.819 C 27.344 12.319 26.596 12.67 25.816 12.855 C 25.49 12.427 25.096 12.085 24.658 11.852 C 24.22 11.618 23.747 11.499 23.27 11.5 C 21.34 11.5 19.787 13.426 19.787 15.79 C 19.787 16.122 19.82 16.454 19.873 16.774 C 16.982 16.587 14.404 14.887 12.689 12.285 C 12.377 12.941 12.213 13.689 12.215 14.45 C 12.215 15.939 12.83 17.251 13.768 18.023 C 13.216 17.997 12.676 17.81 12.193 17.478 L 12.193 17.53 C 12.193 19.615 13.39 21.343 14.986 21.74 C 14.686 21.836 14.378 21.885 14.068 21.886 C 13.842 21.886 13.627 21.858 13.411 21.821 C 13.852 23.521 15.137 24.755 16.667 24.796 C 15.47 25.95 13.97 26.629 12.342 26.629 C 12.05 26.629 11.78 26.616 11.5 26.576 C 13.045 27.796 14.878 28.5 16.851 28.5 C 23.258 28.5 26.764 21.967 26.764 16.296 C 26.764 16.11 26.764 15.924 26.754 15.737 C 27.432 15.126 28.026 14.369 28.5 13.519 Z" fill="white" fill-opacity="0.95"/>
</svg>