<svg width="18" height="18" viewBox="0 0 25 25" fill="none" xmlns="http://www.w3.org/2000/svg">
<path fill-rule="evenodd" clip-rule="evenodd" d="M4.00721 19.6429V23.2143C4.00721 23.6879 4.13731 24.1421 4.36889 24.477C4.60048 24.8119 4.91457 25 5.24208 25H23.7652C24.0927 25 24.4068 24.8119 24.6384 24.477C24.8699 24.1421 25 23.6879 25 23.2143V8.9286C25 8.455 24.8699 8.00079 24.6384 7.66591C24.4068 7.33102 24.0927 7.14288 23.7652 7.14288H22.2278V10.4188C22.3969 10.7838 22.6257 11.0828 22.8939 11.2895C23.1621 11.4962 23.4613 11.604 23.7652 11.6036V20.5357C23.2757 20.5398 22.8073 20.8237 22.4622 21.3256C22.1171 21.8275 21.9234 22.5065 21.9234 23.2143H7.0913C7.08482 22.5106 6.88718 21.8388 6.54108 21.3439C6.19497 20.8491 5.72816 20.571 5.24146 20.5697V19.6429H4.00659H4.00721Z" fill="white"/>
<path d="M12.9661 8.92855C12.9661 9.87575 12.7059 10.7842 12.2427 11.4539C11.7796 12.1237 11.1514 12.5 10.4964 12.5C9.84134 12.5 9.21315 12.1237 8.74998 11.4539C8.28682 10.7842 8.02661 9.87575 8.02661 8.92855C8.02661 7.98134 8.28682 7.07294 8.74998 6.40316C9.21315 5.73339 9.84134 5.35712 10.4964 5.35712C11.1514 5.35712 11.7796 5.73339 12.2427 6.40316C12.7059 7.07294 12.9661 7.98134 12.9661 8.92855Z" fill="white"/>
<path fill-rule="evenodd" clip-rule="evenodd" d="M1.23487 0C0.907364 0 0.593269 0.188138 0.361686 0.523024C0.130102 0.85791 0 1.31211 0 1.78571V16.0714C0 16.545 0.130102 16.9992 0.361686 17.3341C0.593269 17.669 0.907364 17.8571 1.23487 17.8571H19.758C20.0855 17.8571 20.3996 17.669 20.6312 17.3341C20.8627 16.9992 20.9928 16.545 20.9928 16.0714V1.78571C20.9928 1.31211 20.8627 0.85791 20.6312 0.523024C20.3996 0.188138 20.0855 0 19.758 0H1.23487ZM3.08595 1.78571H17.9063C17.9068 2.49541 18.1021 3.1758 18.4493 3.67739C18.7965 4.17897 19.2672 4.46072 19.758 4.46071V13.3929C19.2684 13.3964 18.7998 13.6802 18.4546 14.1822C18.1094 14.6842 17.9158 15.3635 17.9162 16.0714H3.08471C3.07855 15.3675 2.88101 14.6955 2.53484 14.2005C2.18866 13.7056 1.72167 13.4277 1.23487 13.4268V4.46429C1.47806 4.46429 1.71887 4.39499 1.94353 4.26036C2.1682 4.12572 2.37231 3.92839 2.54422 3.67964C2.71612 3.43089 2.85244 3.13559 2.9454 2.81062C3.03835 2.48566 3.08611 2.13739 3.08595 1.78571Z" fill="white"/>
</svg>
