<svg width="20" height="20" viewBox="0 0 30 30" fill="none" xmlns="http://www.w3.org/2000/svg">
<path d="M26.25 30H3.75C2.71484 30 1.83105 29.6338 1.09863 28.9014C0.366211 28.1689 0 27.2852 0 26.25C0 25.2148 0.366211 24.3311 1.09863 23.5986C1.83105 22.8662 2.71484 22.5 3.75 22.5H13.125V21.3867C11.4844 21.0742 10.1367 20.4102 9.08203 19.3945C8.02734 18.3789 7.5 17.2266 7.5 15.9375C7.5 15.4297 7.68066 14.9902 8.04199 14.6191C8.40332 14.248 8.84277 14.0625 9.36035 14.0625C9.87793 14.0625 10.3223 14.248 10.6934 14.6191C11.0645 14.9902 11.25 15.4297 11.25 15.9375C11.25 16.4453 11.4209 16.9141 11.7627 17.3438C12.1045 17.7734 12.5586 18.1152 13.125 18.3691V12.9492C11.4844 12.6367 10.1367 11.9727 9.08203 10.957C8.02734 9.94141 7.5 8.78906 7.5 7.5C7.5 6.21094 8.02734 5.05859 9.08203 4.04297C10.1367 3.02734 11.4844 2.36328 13.125 2.05078V1.875C13.125 1.36719 13.3057 0.927734 13.667 0.556641C14.0283 0.185547 14.4678 0 14.9854 0C15.5029 0 15.9473 0.185547 16.3184 0.556641C16.6895 0.927734 16.875 1.36719 16.875 1.875V2.05078C18.5156 2.36328 19.8633 3.02734 20.918 4.04297C21.9727 5.05859 22.5 6.21094 22.5 7.5C22.5 8.02734 22.3145 8.47168 21.9434 8.83301C21.5723 9.19434 21.1279 9.375 20.6104 9.375C20.0928 9.375 19.6533 9.18945 19.292 8.81836C18.9307 8.44727 18.75 8.00781 18.75 7.5C18.75 6.99219 18.5791 6.52344 18.2373 6.09375C17.8955 5.66406 17.4414 5.32227 16.875 5.06836V10.4883C18.5156 10.8008 19.8633 11.4648 20.918 12.4805C21.9727 13.4961 22.5 14.6484 22.5 15.9375C22.5 17.2266 21.9727 18.3789 20.918 19.3945C19.8633 20.4102 18.5156 21.0742 16.875 21.3867V22.5H26.25C27.2852 22.5 28.1689 22.8662 28.9014 23.5986C29.6338 24.3311 30 25.2148 30 26.25C30 27.2852 29.6338 28.1689 28.9014 28.9014C28.1689 29.6338 27.2852 30 26.25 30ZM13.125 5.06836C12.5586 5.32227 12.1045 5.66406 11.7627 6.09375C11.4209 6.52344 11.25 6.99219 11.25 7.5C11.25 8.00781 11.4209 8.47656 11.7627 8.90625C12.1045 9.33594 12.5586 9.67773 13.125 9.93164V5.06836ZM5.61035 24.375C5.09277 24.375 4.65332 24.5605 4.29199 24.9316C3.93066 25.3027 3.75 25.7471 3.75 26.2646C3.75 26.7822 3.93066 27.2217 4.29199 27.583C4.65332 27.9443 5.09277 28.125 5.61035 28.125C6.12793 28.125 6.57227 27.9443 6.94336 27.583C7.31445 27.2217 7.5 26.7822 7.5 26.2646C7.5 25.7471 7.31445 25.3027 6.94336 24.9316C6.57227 24.5605 6.12793 24.375 5.61035 24.375ZM18.75 15.9375C18.75 15.4297 18.5791 14.9609 18.2373 14.5312C17.8955 14.1016 17.4414 13.7598 16.875 13.5059V18.3691C17.4414 18.1152 17.8955 17.7734 18.2373 17.3438C18.5791 16.9141 18.75 16.4453 18.75 15.9375ZM24.375 24.375H13.125C12.5977 24.375 12.1533 24.5605 11.792 24.9316C11.4307 25.3027 11.25 25.7471 11.25 26.2646C11.25 26.7822 11.4307 27.2217 11.792 27.583C12.1533 27.9443 12.5977 28.125 13.125 28.125H24.375C24.8828 28.125 25.3223 27.9443 25.6934 27.583C26.0645 27.2217 26.25 26.7822 26.25 26.2646C26.25 25.7471 26.0645 25.3027 25.6934 24.9316C25.3223 24.5605 24.8828 24.375 24.375 24.375Z" fill="white" fill-opacity="0.88"/>
</svg>
