<svg width="26" height="18" viewBox="0 0 35 27" fill="none" xmlns="http://www.w3.org/2000/svg">
<path d="M23.8636 0C24.2856 0 24.6902 0.17779 24.9886 0.494258C25.2869 0.810725 25.4545 1.23995 25.4545 1.6875V8.775L33.748 2.61563C33.8672 2.52696 34.0071 2.47471 34.1524 2.4646C34.2978 2.45448 34.4429 2.48687 34.5721 2.55824C34.7012 2.62961 34.8094 2.73722 34.8849 2.86935C34.9604 3.00147 35.0002 3.15303 35 3.3075V23.6925C35.0002 23.847 34.9604 23.9985 34.8849 24.1307C34.8094 24.2628 34.7012 24.3704 34.5721 24.4418C34.4429 24.5131 34.2978 24.5455 34.1524 24.5354C34.0071 24.5253 33.8672 24.473 33.748 24.3844L25.4545 18.225V25.3125C25.4545 25.7601 25.2869 26.1893 24.9886 26.5057C24.6902 26.8222 24.2856 27 23.8636 27H1.59091C1.16897 27 0.76432 26.8222 0.465966 26.5057C0.167613 26.1893 0 25.7601 0 25.3125V1.6875C0 1.23995 0.167613 0.810725 0.465966 0.494258C0.76432 0.17779 1.16897 0 1.59091 0H23.8636ZM22.2727 3.375H3.18182V23.625H22.2727V3.375ZM11.1364 6.75H14.3182V11.8125H19.0909V15.1875H14.3166L14.3182 20.25H11.1364L11.1348 15.1875H6.36364V11.8125H11.1364V6.75ZM31.8182 8.16919L25.4545 12.8942V14.1058L31.8182 18.8308V8.1675V8.16919Z" fill="white"/>
</svg>
