<svg width="30" height="30" viewBox="0 0 60 60" fill="none" xmlns="http://www.w3.org/2000/svg">
<path d="M46.3591 37.4296C45.7732 36.3655 46.5185 35.2827 47.7935 33.9421C49.8138 31.814 52.0123 26.878 49.9685 21.8671C49.9826 21.839 49.5654 20.9952 49.5795 20.9671L48.7404 20.9249C48.4732 20.8874 39.2435 20.8687 30.0045 20.8687C20.7654 20.8687 11.5357 20.8874 11.2685 20.9249C11.2685 20.9249 10.0263 21.839 10.0357 21.8671C7.99665 26.878 10.1904 31.8093 12.2107 33.9421C13.481 35.2827 14.2263 36.3655 13.6451 37.4296C13.0779 38.4655 11.3904 38.6155 11.3904 38.6155C11.3904 38.6155 11.7795 39.6749 12.717 40.2468C13.5841 40.7765 14.6529 40.8983 15.3888 40.9171C15.3888 40.9171 18.2716 44.9062 25.8091 44.9062H34.1998C41.7373 44.9062 44.6201 40.9171 44.6201 40.9171C45.356 40.8983 46.4248 40.7765 47.292 40.2468C48.2295 39.6749 48.6185 38.6155 48.6185 38.6155C48.6185 38.6155 46.9263 38.4655 46.3591 37.4296Z" fill="#312D2D"/>
<path d="M29.9951 44.9016V40.4766L43.3873 39.4172L44.6061 40.9172C44.6061 40.9172 41.7232 44.9063 34.1857 44.9063L29.9951 44.9016Z" fill="url(#paint0_radial_25_331)"/>
<path d="M44.5779 38.9813C42.5716 35.9345 47.0201 34.7954 47.0201 34.7954L47.0248 34.8001C46.2513 35.761 45.8998 36.6001 46.3545 37.4298C46.9216 38.4657 48.6091 38.6157 48.6091 38.6157C48.6091 38.6157 46.3076 40.6595 44.5779 38.9813Z" fill="url(#paint1_radial_25_331)"/>
<path d="M49.9783 21.8672C51.9705 26.7188 49.8752 31.7157 47.9111 33.8251C47.6439 34.1157 46.5002 35.236 46.2377 36.1313C46.2377 36.1313 41.7658 29.8922 40.4299 26.2266C40.1627 25.486 39.9143 24.7266 39.8814 23.9391C39.858 23.3485 39.9471 22.6454 40.2893 22.1438C40.7064 21.5297 49.7393 21.3469 49.7393 21.3469C49.7393 21.3516 49.9783 21.8672 49.9783 21.8672Z" fill="url(#paint2_radial_25_331)"/>
<path d="M10.0311 21.8673C8.0436 26.7189 10.1389 31.7157 12.0983 33.8204C12.3702 34.111 13.5092 35.2314 13.7717 36.1267C13.7717 36.1267 18.2436 29.8876 19.5795 26.222C19.8514 25.4813 20.0952 24.722 20.128 23.9345C20.1514 23.3438 20.0623 22.6407 19.7202 22.1392C19.303 21.5251 18.8155 21.6892 18.1077 21.6892C16.7577 21.6892 10.8467 21.3423 10.3873 21.3423C10.392 21.3517 10.0311 21.8673 10.0311 21.8673Z" fill="url(#paint3_radial_25_331)"/>
<path d="M30.0143 44.9016V40.4766L16.6221 39.4172L15.4033 40.9172C15.4033 40.9172 18.2861 44.9063 25.8236 44.9063L30.0143 44.9016Z" fill="url(#paint4_radial_25_331)"/>
<path d="M15.4312 38.9813C17.4374 35.9345 12.989 34.7954 12.989 34.7954L12.9843 34.8001C13.7577 35.761 14.1093 36.6001 13.6546 37.4298C13.0874 38.4657 11.3999 38.6157 11.3999 38.6157C11.3999 38.6157 13.7015 40.6595 15.4312 38.9813Z" fill="url(#paint5_radial_25_331)"/>
<path d="M30.0656 45H30C17.9766 45.0141 5.625 48.3281 5.625 56.7141V58.0969H54.375V56.7141C54.375 48.8062 42.1406 45 30.0656 45Z" fill="url(#paint6_linear_25_331)"/>
<path d="M35.1654 42.8345H24.8342L21.7451 46.172L26.1889 53.0579L29.9998 48.3517L33.8107 53.0579L38.2545 46.172L35.1654 42.8345Z" fill="url(#paint7_linear_25_331)"/>
<path d="M30.2719 52.3171H29.761C29.2032 52.3171 28.7203 51.9327 28.5891 51.389L28.3922 50.5687C28.2141 49.814 29.1703 49.0874 30.0422 49.0874C30.9141 49.0874 31.8047 49.8046 31.6313 50.5593L31.4438 51.3796C31.3219 51.9327 30.8344 52.3171 30.2719 52.3171Z" fill="#1565C0"/>
<path d="M24.4404 53.0297V48.6234C24.4404 48.075 25.0357 47.7281 25.5186 47.9953L29.4279 50.1656C29.9154 50.4375 29.9248 51.1359 29.4373 51.4125L25.5279 53.6531C25.0404 53.925 24.4404 53.5828 24.4404 53.0297Z" fill="#1565C0"/>
<path d="M35.3998 53.0297V48.6234C35.3998 48.075 34.8045 47.7281 34.3217 47.9953L30.4123 50.1656C29.9248 50.4375 29.9155 51.1359 30.403 51.4125L34.3123 53.6531C34.7952 53.925 35.3998 53.5828 35.3998 53.0297Z" fill="#1565C0"/>
<path d="M29.9999 39.5298H25.7437V44.2079C25.7437 46.322 27.478 48.0376 29.6155 48.0376H30.389C32.5265 48.0376 34.2608 46.322 34.2608 44.2079V39.5298H29.9999Z" fill="#EDC391"/>
<path d="M42.8111 23.6389H17.1893C14.4283 23.6389 12.1689 26.0483 12.1689 28.9874C12.1689 31.9264 14.4283 34.3358 17.1893 34.3358H42.8064C45.5674 34.3358 47.8268 31.9264 47.8268 28.9874C47.8268 26.0483 45.5721 23.6389 42.8111 23.6389V23.6389Z" fill="#EDC391"/>
<path d="M30.0001 5.18896C21.8438 5.18896 14.2876 13.9124 14.2876 26.4702C14.2876 38.9577 22.0735 45.1311 30.0001 45.1311C37.9267 45.1311 45.7126 38.953 45.7126 26.4655C45.7126 13.9124 38.1563 5.18896 30.0001 5.18896V5.18896Z" fill="#F9DDBD"/>
<path d="M25.6875 23.3531C25.2516 22.7765 24.2484 21.9421 22.2984 21.9421C20.3484 21.9421 19.3406 22.7812 18.9094 23.3531C18.7172 23.6062 18.7641 23.9015 18.9 24.0796C19.0219 24.2437 19.3875 24.3984 19.7906 24.2624C20.1938 24.1265 20.9813 23.7187 22.2984 23.7093C23.6156 23.7187 24.4031 24.1265 24.8063 24.2624C25.2094 24.3984 25.575 24.2484 25.6969 24.0796C25.8281 23.9015 25.8797 23.6062 25.6875 23.3531V23.3531Z" fill="#454140"/>
<path d="M41.0952 23.3531C40.6593 22.7765 39.6562 21.9421 37.7062 21.9421C35.7562 21.9421 34.7483 22.7812 34.3171 23.3531C34.1249 23.6062 34.1718 23.9015 34.3077 24.0796C34.4296 24.2437 34.7952 24.3984 35.1983 24.2624C35.6015 24.1265 36.389 23.7187 37.7062 23.7093C39.0233 23.7187 39.8108 24.1265 40.214 24.2624C40.6171 24.3984 40.9827 24.2484 41.1046 24.0796C41.2358 23.9015 41.2874 23.6062 41.0952 23.3531Z" fill="#454140"/>
<path d="M22.2938 29.9578C23.5701 29.9578 24.6048 28.8874 24.6048 27.5671C24.6048 26.2468 23.5701 25.1765 22.2938 25.1765C21.0176 25.1765 19.9829 26.2468 19.9829 27.5671C19.9829 28.8874 21.0176 29.9578 22.2938 29.9578Z" fill="#312D2D"/>
<path d="M37.7064 29.9578C38.9827 29.9578 40.0174 28.8874 40.0174 27.5671C40.0174 26.2468 38.9827 25.1765 37.7064 25.1765C36.4302 25.1765 35.3955 26.2468 35.3955 27.5671C35.3955 28.8874 36.4302 29.9578 37.7064 29.9578Z" fill="#312D2D"/>
<path d="M31.8096 31.903C31.758 31.8842 31.7111 31.8702 31.6596 31.8655H28.3408C28.2893 31.8702 28.2377 31.8842 28.1908 31.903C27.8908 32.0249 27.7268 32.3342 27.8674 32.667C28.008 32.9999 28.6689 33.928 30.0002 33.928C31.3314 33.928 31.9924 32.9952 32.133 32.667C32.2736 32.3342 32.1096 32.0249 31.8096 31.903V31.903Z" fill="#DBA689"/>
<path d="M33.9472 35.6906C32.4566 36.5765 27.5581 36.5765 26.0675 35.6906C25.2097 35.1796 24.3331 35.9624 24.6894 36.7405C25.0409 37.5046 27.7081 39.2812 30.0191 39.2812C32.33 39.2812 34.9644 37.5046 35.3159 36.7405C35.6675 35.9624 34.805 35.1796 33.9472 35.6906Z" fill="#444444"/>
<path d="M48.7826 11.7703C47.6389 10.0406 45.0748 7.72026 42.7732 7.56558C42.4029 5.35308 40.0357 3.47808 37.7435 2.75151C31.542 0.787452 27.506 2.99058 25.3404 4.17183C24.8904 4.41558 21.9795 6.03276 19.9451 4.87495C18.6701 4.14839 18.6935 2.18433 18.6935 2.18433C18.6935 2.18433 14.6998 3.70776 16.0639 7.94995C14.6904 8.0062 12.8904 8.58745 11.9389 10.514C10.8045 12.8109 11.2076 14.7281 11.5357 15.6468C10.3545 16.65 8.86855 18.7828 9.88573 21.5531C10.6545 23.639 13.7154 24.6 13.7154 24.6C13.4998 28.3546 14.1982 30.6656 14.5685 31.5984C14.6342 31.7625 14.8639 31.7484 14.906 31.5796C15.3701 29.7187 16.9545 23.2359 16.7951 22.1062C16.7951 22.1062 22.1154 21.0515 27.1873 17.3156C28.2185 16.5562 29.3389 15.9093 30.5295 15.4359C36.8998 12.9 38.231 17.2265 38.231 17.2265C38.231 17.2265 42.6467 16.3781 43.9779 22.5093C44.4795 24.8062 44.817 28.4859 45.1029 31.0593C45.1217 31.2421 45.3701 31.2796 45.4404 31.1109C45.8857 30.089 46.7764 28.064 46.9873 25.9968C47.0623 25.2703 49.0217 24.3093 49.8654 21.1875C50.9951 17.025 49.6123 13.0218 48.7826 11.7703Z" fill="#312D2D"/>
<path d="M46.978 26.0155C47.053 25.2889 49.0124 24.328 49.8562 21.2061C49.9452 20.8733 50.0202 20.5358 50.0905 20.1983C50.7749 16.4061 49.5468 12.9233 48.7827 11.7702C47.7233 10.1717 45.4546 8.07173 43.303 7.64048C43.1155 7.61704 42.9327 7.5936 42.7593 7.58423C42.7593 7.58423 42.914 8.59204 42.5062 9.3936C41.9812 10.4342 40.9077 10.6827 40.9077 10.6827C46.5187 16.2983 46.1202 20.9952 46.978 26.0155Z" fill="url(#paint8_radial_25_331)"/>
<path d="M26.6953 3.46392C26.1797 3.71235 25.7297 3.96079 25.336 4.17173C24.886 4.41548 21.975 6.03267 19.9406 4.87485C18.6891 4.16235 18.6891 2.25923 18.6891 2.1936C18.1125 2.92954 16.3688 8.18423 21.4688 8.53579C23.6672 8.68579 25.0219 6.7686 25.8281 5.14673C26.1188 4.5561 26.5735 3.6936 26.6953 3.46392Z" fill="url(#paint9_radial_25_331)"/>
<path d="M37.1061 2.56407C40.5374 3.49219 42.2108 5.24063 42.7686 7.57032C42.9327 8.25469 43.1295 14.6391 30.942 7.38282C26.4092 4.68282 27.6467 2.99532 28.1764 2.80313C30.2483 2.05313 33.2624 1.52344 37.1061 2.56407Z" fill="url(#paint10_radial_25_331)"/>
<path d="M18.675 2.1937C18.6704 2.19839 18.661 2.19839 18.6469 2.20776H18.6422C18.2063 2.39058 14.7797 3.97964 16.0594 7.94995L19.7063 8.53589C16.4766 5.26401 18.6891 2.18433 18.6891 2.18433C18.6891 2.18433 18.6797 2.18901 18.675 2.1937Z" fill="url(#paint11_radial_25_331)"/>
<path d="M18.3142 8.31089L16.0595 7.94995C15.9704 7.94995 15.6704 7.97808 15.5063 8.00151C14.236 8.17964 12.7407 8.83589 11.9298 10.514C11.0579 12.3234 11.0813 13.875 11.3204 14.9109C11.3907 15.2578 11.5313 15.6515 11.5313 15.6515C11.5313 15.6515 12.647 14.5921 15.3048 14.5218L18.3142 8.31089Z" fill="url(#paint12_radial_25_331)"/>
<path d="M11.4233 15.7405C10.3123 16.7249 8.81704 18.9233 9.9186 21.6514C10.7483 23.7092 13.7108 24.5999 13.7108 24.5999C13.7108 24.6092 14.3014 24.7874 14.6061 24.7874L15.2998 14.5217C13.8795 14.5217 12.5155 14.9483 11.6342 15.5624C11.6483 15.5764 11.4186 15.7264 11.4233 15.7405Z" fill="url(#paint13_radial_25_331)"/>
<defs>
<radialGradient id="paint0_radial_25_331" cx="0" cy="0" r="1" gradientUnits="userSpaceOnUse" gradientTransform="translate(36.8356 38.5081) scale(10.9777 5.39223)">
<stop offset="0.728" stop-color="#454140" stop-opacity="0"/>
<stop offset="1" stop-color="#454140"/>
</radialGradient>
<radialGradient id="paint1_radial_25_331" cx="0" cy="0" r="1" gradientUnits="userSpaceOnUse" gradientTransform="translate(47.6486 36.8745) rotate(154.924) scale(3.24406 2.40663)">
<stop offset="0.663" stop-color="#454140"/>
<stop offset="1" stop-color="#454140" stop-opacity="0"/>
</radialGradient>
<radialGradient id="paint2_radial_25_331" cx="0" cy="0" r="1" gradientUnits="userSpaceOnUse" gradientTransform="translate(39.2415 27.6992) rotate(-94.2783) scale(14.2493 11.8759)">
<stop offset="0.725" stop-color="#454140" stop-opacity="0"/>
<stop offset="1" stop-color="#454140"/>
</radialGradient>
<radialGradient id="paint3_radial_25_331" cx="0" cy="0" r="1" gradientUnits="userSpaceOnUse" gradientTransform="translate(20.7694 27.6989) rotate(-85.7217) scale(14.2493 11.8759)">
<stop offset="0.725" stop-color="#454140" stop-opacity="0"/>
<stop offset="1" stop-color="#454140"/>
</radialGradient>
<radialGradient id="paint4_radial_25_331" cx="0" cy="0" r="1" gradientUnits="userSpaceOnUse" gradientTransform="translate(23.1747 38.5081) rotate(180) scale(10.9777 5.39223)">
<stop offset="0.728" stop-color="#454140" stop-opacity="0"/>
<stop offset="1" stop-color="#454140"/>
</radialGradient>
<radialGradient id="paint5_radial_25_331" cx="0" cy="0" r="1" gradientUnits="userSpaceOnUse" gradientTransform="translate(12.3622 36.8748) rotate(25.0761) scale(3.24405 2.40663)">
<stop offset="0.663" stop-color="#454140"/>
<stop offset="1" stop-color="#454140" stop-opacity="0"/>
</radialGradient>
<linearGradient id="paint6_linear_25_331" x1="30" y1="44.8537" x2="30" y2="57.9839" gradientUnits="userSpaceOnUse">
<stop offset="0.003" stop-color="#E3F2FD"/>
<stop offset="0.225" stop-color="#D6ECFC"/>
<stop offset="0.635" stop-color="#B4DBFB"/>
<stop offset="1" stop-color="#90CAF9"/>
</linearGradient>
<linearGradient id="paint7_linear_25_331" x1="29.9998" y1="52.3506" x2="29.9998" y2="43.8038" gradientUnits="userSpaceOnUse">
<stop offset="0.5" stop-color="#F5F5F5"/>
<stop offset="1" stop-color="#DADADA"/>
</linearGradient>
<radialGradient id="paint8_radial_25_331" cx="0" cy="0" r="1" gradientUnits="userSpaceOnUse" gradientTransform="translate(38.4453 20.1802) rotate(72.0851) scale(16.7027 12.393)">
<stop offset="0.699" stop-color="#454140" stop-opacity="0"/>
<stop offset="1" stop-color="#454140"/>
</radialGradient>
<radialGradient id="paint9_radial_25_331" cx="0" cy="0" r="1" gradientUnits="userSpaceOnUse" gradientTransform="translate(22.163 1.96932) rotate(28.2026) scale(4.37962 5.19295)">
<stop offset="0.58" stop-color="#454140"/>
<stop offset="1" stop-color="#454140" stop-opacity="0"/>
</radialGradient>
<radialGradient id="paint10_radial_25_331" cx="0" cy="0" r="1" gradientUnits="userSpaceOnUse" gradientTransform="translate(31.9507 9.9231) rotate(-157.19) scale(13.6967 7.69759)">
<stop offset="0.699" stop-color="#454140" stop-opacity="0"/>
<stop offset="1" stop-color="#454140"/>
</radialGradient>
<radialGradient id="paint11_radial_25_331" cx="0" cy="0" r="1" gradientUnits="userSpaceOnUse" gradientTransform="translate(20.4043 5.96473) scale(4.01953 4.91709)">
<stop offset="0.702" stop-color="#454140" stop-opacity="0"/>
<stop offset="1" stop-color="#454140"/>
</radialGradient>
<radialGradient id="paint12_radial_25_331" cx="0" cy="0" r="1" gradientUnits="userSpaceOnUse" gradientTransform="translate(19.8506 13.06) rotate(-164.942) scale(7.53918 7.0553)">
<stop offset="0.66" stop-color="#454140" stop-opacity="0"/>
<stop offset="1" stop-color="#454140"/>
</radialGradient>
<radialGradient id="paint13_radial_25_331" cx="0" cy="0" r="1" gradientUnits="userSpaceOnUse" gradientTransform="translate(18.0637 20.3393) rotate(7.83355) scale(7.91557 11.1227)">
<stop offset="0.598" stop-color="#454140" stop-opacity="0"/>
<stop offset="1" stop-color="#454140"/>
</radialGradient>
</defs>
</svg>
